<?xml version="1.0" encoding="utf-8"?>
<!-- Generator: Adobe Illustrator 27.5.0, SVG Export Plug-In . SVG Version: 6.00 Build 0)  -->
<svg version="1.1" xmlns="http://www.w3.org/2000/svg" xmlns:xlink="http://www.w3.org/1999/xlink" x="0px" y="0px"
	 viewBox="0 0 750 500" style="enable-background:new 0 0 750 500;" xml:space="preserve">
<g id="BACKGROUND">
	<rect style="fill:#EFEFEF;" width="750" height="500"/>
</g>
<g id="OBJECTS">
	<g>
		<linearGradient id="SVGID_1_" gradientUnits="userSpaceOnUse" x1="311.0812" y1="82.9982" x2="413.8517" y2="369.5977">
			<stop  offset="0" style="stop-color:#8DE1E8;stop-opacity:0.8"/>
			<stop  offset="0.2227" style="stop-color:#A8E1E8;stop-opacity:0.6857"/>
			<stop  offset="0.435" style="stop-color:#BAE1E8;stop-opacity:0.5768"/>
			<stop  offset="0.5847" style="stop-color:#C1E1E8;stop-opacity:0.5"/>
			<stop  offset="1" style="stop-color:#FFFFFF"/>
		</linearGradient>
		<path style="opacity:0.8;fill:url(#SVGID_1_);" d="M225.007,366.131c-77.163,0.055-145.716-23.405-148.399-111.628
			C72.678,125.246,206.138,43.65,336.83,73.531c37.114,8.486,66.063,33.921,101.3,45.839c36.605,12.381,77.352,2.103,114.939,7.943
			c38.732,6.018,74.87,28.818,96.147,61.854c41.733,64.795,22.044,179.86-71.122,179.255
			C578.073,368.422,225.007,366.131,225.007,366.131z"/>
		
			<linearGradient id="SVGID_00000065032415088631897780000002336302979316205753_" gradientUnits="userSpaceOnUse" x1="160.1829" y1="411.6432" x2="776.2449" y2="411.6432">
			<stop  offset="0" style="stop-color:#8DE1E8;stop-opacity:0.8"/>
			<stop  offset="0.2227" style="stop-color:#A8E1E8;stop-opacity:0.6857"/>
			<stop  offset="0.435" style="stop-color:#BAE1E8;stop-opacity:0.5768"/>
			<stop  offset="0.5847" style="stop-color:#C1E1E8;stop-opacity:0.5"/>
			<stop  offset="1" style="stop-color:#FFFFFF"/>
		</linearGradient>
		
			<ellipse style="opacity:0.8;fill:url(#SVGID_00000065032415088631897780000002336302979316205753_);" cx="375" cy="411.643" rx="308.031" ry="20.996"/>
		<line style="fill:#386167;" x1="482.179" y1="159.63" x2="483.292" y2="148.04"/>
		<g>
			<g>
				<g>
					<rect x="244.752" y="331.847" style="fill:#063956;" width="15.327" height="83.765"/>
					<path style="fill:#063956;" d="M298.016,416.253h-90.261l0,0c0-2.859,2.317-5.176,5.176-5.176h79.909
						C295.699,411.077,298.016,413.394,298.016,416.253L298.016,416.253z"/>
				</g>
				<path style="fill:#299C90;" d="M215.829,204.34l-58.082,3.541c-11.466,0.699-18.344,13.051-12.898,23.166l48.343,89.797
					c4.693,8.717,13.794,14.153,23.694,14.153h74.057c9.606,0,17.393-7.787,17.393-17.393l0,0c0-3.85-1.277-7.591-3.631-10.637
					l-68.486-93.082C231.484,207.448,223.805,203.854,215.829,204.34z"/>
			</g>
			<path style="fill:#FCBA33;" d="M285.393,222.778l16.614-23.057c0,0,5.191,0.501,9.69,18.397
				c4.482,17.824,13.934,35.639,13.934,35.639l-13.919,11.21c0,0-15.482-14.198-19.353-32.645
				C288.49,213.876,285.393,222.778,285.393,222.778z"/>
			<g>
				<g>
					<path style="fill:#F9AF9A;" d="M312.435,283.401l5.76-7.681c0,0,3.84-3.764,13.921,11.079c0,0,33.794,51.326,37.635,53.726
						s20.449,1.632,28.13-1.728c7.681-3.36,11.184-0.708,0,6.909c-13.537,9.22-19.777,17.541-25.346,18.245
						c-6.191,0.783-8.474-10.273-8.474-10.273s-13.703-8.353-22.824-11.713c-9.121-3.36-26.882-14.401-28.802-27.842
						C310.515,300.682,312.435,283.401,312.435,283.401z"/>
					<path style="fill:#F23A30;" d="M344.533,343.304c4.273-8.032,9.908-14.396,13.559-18.055
						c-11.131-15.905-25.976-38.45-25.976-38.45c-10.081-14.843-13.921-11.079-13.921-11.079l-5.76,7.681c0,0-1.92,17.281,0,30.722
						c1.92,13.441,19.681,24.482,28.802,27.842C342.283,342.35,343.394,342.807,344.533,343.304z"/>
					<path style="opacity:0.64;fill:#F23A30;" d="M312.717,297.685c0,0,12.693,31.922,34.222,41.621l-2.406,3.998
						c0,0-23.875-7.42-28.355-22.81C314.609,315.105,312.717,297.685,312.717,297.685z"/>
				</g>
				<g>
					<path style="fill:#F9AF9A;" d="M290.801,287.049c0,0,17.698-2.4,21.538,7.681c2.064,5.417,2.435,11.825,3.233,17.512
						c1.413,10.068,4.511,20.169,5.646,30.271c1.839,16.362,4.727,32.937,7.022,49.237c0.358,2.539,1.045,5.07,2.472,7.251
						c3.274,5.006,13.484,6.173,18.841,7.983c0.93,0.314,12.419,4.189,8.87,5.833c-8.568,3.969-42.293,3.529-48.004,1.344
						c-3.831-1.466,0.366-11.679,0.096-13.825c-1.695-13.463-15.937-27.362-22.658-45.603c-6.72-18.241-0.96-39.843-0.96-39.843
						L290.801,287.049z"/>
					<path style="fill:#F23A30;" d="M287.857,354.734c3.592,9.751,9.325,18.254,14.15,26.12c7.297-1.833,17.599-4.162,25.301-4.862
						c-2.865-26.216-8.365-74.006-11.129-81.262c-3.84-10.081-25.379-7.681-25.379-7.681s-82.627,18.427-69.666,25.474
						c12.961,7.047,65.763,2.368,65.763,2.368S281.137,336.493,287.857,354.734z"/>
					<path style="opacity:0.3;fill:#F23A30;" d="M287.857,354.734c3.592,9.751,9.325,18.254,14.15,26.12
						c7.297-1.833,17.599-4.162,25.301-4.862c-2.865-26.216-8.365-74.006-11.129-81.262c-3.84-10.081-25.379-7.681-25.379-7.681
						s-82.627,18.427-69.666,25.474c12.961,7.047,65.763,2.368,65.763,2.368S281.137,336.493,287.857,354.734z"/>
					<path style="opacity:0.3;fill:#F23A30;" d="M297.481,291.276c0,0-17.785,21.887-28.345,25.407l-32.163,0.32l35.314-19.201
						L297.481,291.276z"/>
				</g>
				<path style="fill:#F23A30;" d="M231.834,271.16c0,0-7.229-8.137-14.535,1.2c-10.142,12.962-7.719,47.262,24.528,44.643
					c36.948-3.001,56.414-36.003,72.766-25.922c0,0,12.627,4.647,12.627-3.437c0,0,0.303-15.764-21.651-16.484
					c-21.954-0.72-61.925,0-61.925,0H231.834z"/>
			</g>
			<path style="opacity:0.43;fill:#FCBA33;" d="M303.771,219.929l-7.505,25.309c0,0,8.5,12.11,10.094,13.963
				C306.36,259.201,300.964,242.384,303.771,219.929z"/>
			<path style="fill:#0A5487;" d="M349.553,406.985c-18.48,5.947-39.038-6.647-39.038-6.647c0.27,2.146-3.926,12.359-0.096,13.825
				c5.71,2.185,39.436,2.625,48.004-1.344C361.972,411.174,350.483,407.299,349.553,406.985z"/>
			<path style="fill:#0A5487;" d="M397.881,338.797c-1.808,0.791-4.118,1.432-6.632,1.929c-9.34,8.98-27.188,12.952-27.188,12.952
				s2.283,11.056,8.474,10.273c5.568-0.704,11.809-9.025,25.346-18.245C409.065,338.089,405.562,335.436,397.881,338.797z"/>
			<g>
				<path style="fill:#F9AF9A;" d="M513.575,358.128c0,0,9.05,14.144,12.456,16.744c3.406,2.6,8.814,2.509,7.436,7.557
					c-1.378,5.049-23.675,33.272-29.387,33.414c-5.712,0.142,7.092-29.865,7.092-29.865l-12.993-20.161l11.294-8.402
					L513.575,358.128z"/>
				<g>
					<path style="fill:#063956;" d="M481.959,225.594c0,0-27.538-7.69-32.84-0.665c-11.051,14.643,2.373,81.806,2.373,81.806
						c0.296,5.637,2.208,11.069,5.508,15.648l49.07,64.854l17.082-16.32c0,0-15.935-57.266-35.228-62.022
						c0,0-9.343-3.759-9.244-12.905C478.778,286.845,481.959,225.594,481.959,225.594z"/>
					<path style="opacity:0.15;fill:#063956;" d="M481.959,225.594c0,0-27.538-7.69-32.84-0.665
						c-11.051,14.643,2.373,81.806,2.373,81.806c0.296,5.637,2.208,11.069,5.508,15.648l49.07,64.854l17.082-16.32
						c0,0-15.935-57.266-35.228-62.022c0,0-9.343-3.759-9.244-12.905C478.778,286.845,481.959,225.594,481.959,225.594z"/>
					<path style="opacity:0.15;fill:#063956;" d="M466.368,240.888l-15.035-4.364l5.516,50.104c0,0-0.705,24.464,9.317,35.289
						c10.023,10.824,15.236-21.248,15.236-21.248L466.368,240.888z"/>
					<path style="opacity:0.15;fill:#063956;" d="M489.533,365.381l11.54,15.252c0,0,6.215-43.029,1.089-56.486
						c-5.126-13.457-15.95,6.388-15.95,6.388L489.533,365.381z"/>
				</g>
				<path style="fill:#F9AF9A;" d="M494.797,380.877c0,0-2.896,16.97-2.108,21.291c0.788,4.322,4.952,7.983,0.424,10.861
					s-42.739,5.602-47.169,1.768c-4.43-3.833,27.814-14.46,27.814-14.46l0.399-24.253l18.02,1.422L494.797,380.877z"/>
				<path style="fill:#063956;" d="M484.483,211.147c0,0,4.99-6.329,12.112,0.915c8.453,8.596,8.364,49.883,1.912,72.682
					c-0.691,2.443-0.383,5.044,0.342,7.477c1.769,5.936,4.622,17.428,5.298,23.653c2.672,24.601-10.381,82.318-10.381,82.318
					h-23.918l-6.402-101.626l-0.457-73.986L484.483,211.147z"/>
				<path style="opacity:0.09;fill:#063956;" d="M504.148,315.874c-0.676-6.225-3.53-17.717-5.299-23.653
					c-0.725-2.433-1.14-5.066-0.342-7.477c8.028-24.243,6.345-64.086-2.108-72.682c-7.123-7.243-11.917-0.915-11.917-0.915
					l-5.999,3.191c8.019,10.667,8.705,50.697,6.903,70.664c-0.228,2.529,0.187,5.055,1.181,7.391
					c2.425,5.699,6.554,16.797,7.927,22.907c5.272,23.466-1.668,79.689-2.062,82.344h1.333
					C493.767,397.643,506.82,340.475,504.148,315.874z"/>
				<path style="fill:#FCB29A;" d="M325.971,195.199c0,0-2.747-3.535-1.155-3.485c0.915,0.029,2.67,3.599,9.989,9.84
					c6.931,5.91,12.028,6.265,15.284,7.454c6.392,2.334-7.03,7.023-8.908,6.17c-8.132-3.697-12.391-3.118-15.844-6.277
					c-0.525-0.481-2.048-3.348,0.921-1.983c2.935,1.349,5.023,0.733,4.942-0.519c-0.121-1.866-6.321-2.857-10.122-5.764
					c-3.897-2.981-6.357-6.324-4.617-7.124c0.13-0.06,0.291-0.031,0.407,0.053c0.426,0.309,2.787,1.942,6.164,3.124
					c0,0-5.242-3.85-4.369-5.345C319.537,189.848,321.848,193.319,325.971,195.199z"/>
				<path style="fill:#299C90;" d="M408.379,182.548c0,0-8.864-10.871-12.19-9.044c-3.86,2.12-8.848,25.724-15.316,35.483
					c0,0-6.483,3.962-23.792-0.444c-17.309-4.406-14.217-3.474-14.217-3.474l-4.854,12.227c0,0,38.106,16.368,50.543,12.609
					c14.083-4.256,31.928-25.978,31.928-25.978L408.379,182.548z"/>
				<path style="fill:#F9AF9A;" d="M421.282,151.171l2.95-5.873c0,0,0.679,14.986,4.367,15.787
					c3.688,0.801,4.367-1.888,12.392,0.472c8.025,2.36-4.603,11.802-4.603,11.802l-9.677,8.969h-8.576l-13.449-10.181
					c-1.454-1.1-1.071-3.379,0.661-3.947c1.68-0.551,4.531-1.135,5.266-1.451c1.652-0.708-1.959-14.375-1.959-14.375
					L421.282,151.171z"/>
				<path style="opacity:0.41;fill:#FCB29A;" d="M421.282,151.171l2.95-5.873c0,0,0.679,14.986,4.367,15.787
					c3.688,0.801,4.367-1.888,12.392,0.472c8.025,2.36-4.603,11.802-4.603,11.802l-9.677,8.969h-8.576l-13.449-10.181
					c-1.454-1.1-1.071-3.379,0.661-3.947c1.68-0.551,4.531-1.135,5.266-1.451c1.652-0.708-1.959-14.375-1.959-14.375
					L421.282,151.171z"/>
				<path style="fill:#F9AF9A;" d="M398.002,146.166c-0.045,0.305-0.081,0.612-0.105,0.921c-0.414,5.434,2.119,10.046,5.02,14.318
					c7.479,11.015,24.256-4.571,24.805-14.895c0.615-11.576-4.853-20.625-14.047-22.082c-5.702-0.904-12.462,0.122-15.096,9.81
					c-0.564,2.074,0.054,4.196-0.028,6.298C398.477,142.443,398.279,144.29,398.002,146.166z"/>
				<path style="opacity:0.41;fill:#FCB29A;" d="M413.676,124.428c-2.25-0.357-4.662-0.401-6.923,0.257
					c0.186,0.025,0.373,0.046,0.557,0.075c9.193,1.457,12.646,8.049,12.031,19.625c-0.351,6.601-5.224,20.265-12.27,20.374
					c8.234,2.852,20.19-9.56,20.652-18.249C428.337,134.934,422.869,125.884,413.676,124.428z"/>
				<path style="fill:#299C90;" d="M429.275,161.154c0,0,7.752-1.321,15.812-1.191c6.644,0.107,10.626,3.354,13.594,6.35
					c9.134,9.217,36.893,40.191,37.893,49.262c0.654,5.935-6.864,15.471-16.682,20.415c-11.017,5.549-34.618,5.665-34.618,5.665
					s-22.043-19.219-33.066-42.068c-1.915-3.97-19.522-19.068-17.439-24.186c1.414-3.474,12.824-9.236,13.767-7.707
					C417.207,181.761,428.803,175.867,429.275,161.154z"/>
				<g>
					<path style="fill:#D9F1FF;" d="M423.359,174.578c0,0,4.41-4.058,4.058-14.691l4.628,0.571c0,0,2.387,10.29-0.391,18.009
						L423.359,174.578z"/>
					<path style="fill:#D9F1FF;" d="M410.786,165.974c0,0,4.527,8.079,12.573,8.789l-2.499,8.543c0,0-11.691-5.13-12.97-15.737
						L410.786,165.974z"/>
				</g>
				<path style="fill:#063956;" d="M416.449,138.096c0.974-4.406,0.812-6.854-2.531-5.721c-8.981,3.045-23.159,2.181-20.61-6.909
					c0,0,4.13,2.127,9.09-1.296c7.759-5.355,20.361-4.993,24.225-0.589c3.865,4.404,4.526,9.444,2.974,15.187l-7.527-2.293
					C422.071,136.476,415.327,143.173,416.449,138.096z"/>
				<path style="fill:#063956;" d="M424.848,134.079l-2.777,2.397c0,0,3.096,4.42,1.293,7.585
					c-1.803,3.165,0.064,14.12,3.767,15.459c0,0-0.31-3.839,1.369-6.208c4.139-5.843,6.67-10.517,5.331-18.551
					c-1.339-8.034-4.723-11.564-10.944-12.776c-4.681-0.912-3.963,7.59-3.963,7.59L424.848,134.079z"/>
				<g>
					<path style="fill:#F9AF9A;" d="M419.834,138.504c0,0,1.043-3.403,4.442-2.202c3.907,1.38,1.686,12.173-4.284,9.103"/>
					<path style="opacity:0.41;fill:#FCB29A;" d="M419.834,138.504c0,0,1.043-3.403,4.442-2.202
						c3.907,1.38,1.686,12.173-4.284,9.103"/>
				</g>
				<path style="opacity:0.53;fill:#299C90;" d="M461.966,192.742l3.504-14.543c0,0,10.349,27.523,11.744,37.258
					c0.778,5.431-3.35,42.9-3.35,42.9L461.966,192.742z"/>
				<path style="opacity:0.53;fill:#299C90;" d="M411.023,201.279c-7.232,20.949-24.596,28.358-25.864,29.145
					c1.264-0.064,2.415-0.223,3.393-0.518c10.012-3.026,21.919-14.874,27.97-21.474l0-0.001L411.023,201.279z"/>
				<path style="fill:#0A5487;" d="M492.689,401.437c0,0-10.704,1.887-19.405-0.934c-6.394,2.189-31.178,10.973-27.34,14.295
					c4.43,3.833,43.372,2.938,47.901,0.061C498.373,411.982,493.477,405.759,492.689,401.437z"/>
				<path style="fill:#0A5487;" d="M504.08,415.843c5.712-0.142,28.558-28.366,29.936-33.414c1.378-5.048-5.676-6.055-9.082-8.655
					c0,0-6.834,8.816-13.762,12.204C511.172,385.977,498.368,415.985,504.08,415.843z"/>
			</g>
			<g>
				<path style="fill:#F9AF9A;" d="M291.117,179.653c0,0-5.074,16.491-1.578,18.545c3.022,1.776,13.841-1.164,16.551,5.029
					c2.709,6.193-15.869,63.066-15.869,63.066l-54.575,0.594c0,0,10.451-60.365,15.869-65.01c5.419-4.645,16.851-0.195,19.56-4.453
					c2.709-4.258,2.168-25.54,2.168-25.54L291.117,179.653z"/>
				<path style="opacity:0.3;fill:#F9AF9A;" d="M291.117,179.653c0,0-5.074,16.491-1.578,18.545
					c3.022,1.776,13.841-1.164,16.551,5.029c2.709,6.193-15.869,63.066-15.869,63.066l-54.575,0.594c0,0,10.451-60.365,15.869-65.01
					c5.419-4.645,16.851-0.195,19.56-4.453c2.709-4.258,2.168-25.54,2.168-25.54L291.117,179.653z"/>
				<g>
					<path style="fill:#063956;" d="M296.56,174.673c0,0,3.423,20.402,6.841,21.842c0,0-13.271,0.396-18.008-3.042
						c-4.737-3.438,1.984-18.799,1.984-18.799H296.56z"/>
					<path style="opacity:0.41;fill:#063956;" d="M296.56,174.673c0,0,3.423,20.402,6.841,21.842c0,0-13.271,0.396-18.008-3.042
						c-4.737-3.438,1.984-18.799,1.984-18.799H296.56z"/>
				</g>
				<g>
					<path style="fill:#F9AF9A;" d="M281.968,157.343c6.461-2.214,12.249-0.607,17.432,6.886c3.098,4.478,2.021,9.891,4.387,12.131
						c1.56,1.477,2.391,0.999,1.989,2.093c-0.538,1.463-2.174,1.933-2.174,1.933s-0.146,10.221-5.788,13.211
						c-5.077,2.689-16.041,0.784-20.687-6.658C274.273,182.367,267.159,162.419,281.968,157.343z"/>
					<path style="opacity:0.3;fill:#F9AF9A;" d="M281.968,157.343c1.799-0.616,3.543-0.924,5.239-0.903
						c-9.038,6.067-4.742,23.022-2.582,27.152c3.61,6.903,8.311,10.705,13.583,9.751c-0.133,0.083-0.254,0.18-0.394,0.254
						c-5.077,2.69-14.878,1.096-20.313-6.166C274.272,183.116,267.159,162.419,281.968,157.343z"/>
				</g>
				<path style="fill:#FCBA33;" d="M306.09,203.227c-1.711-3.91-7.643-5.123-13.499-4.214c-2.554,5.487-4.503,12.255-12.236,12.214
					c-8.393-0.044-11.909-5.727-13.388-11.884c-4.636,0.532-11.577-0.789-15.453,2.534c-5.419,4.645-15.869,65.01-15.869,65.01
					l54.575-0.594C290.221,266.293,308.799,209.42,306.09,203.227z"/>
				<path style="fill:#063956;" d="M279.133,160.276c0,0,8.237,0.955,7.392,6.59l16.127-3.256c0,0-1.164-12.161-15.4-10.434
					C284.283,153.537,280.297,153.82,279.133,160.276z"/>
				<path style="fill:#063956;" d="M286.679,162.297L286.679,162.297c-2.052-0.25-3.15,1.935-3.73,3.919
					c-1.938,6.633,0.669,20.954,7.751,30.339l-23.959-0.921c0,0-3.287-5.967-5.365-15.845c-1.665-7.915,0.399-22.447,15.183-25.581
					c5.583-1.184,12.27-0.458,13.434,1.75"/>
				<g>
					<rect x="273.318" y="261.159" style="fill:#0A5487;" width="39.399" height="5.44"/>
					<g>
						<path style="fill:#0A5487;" d="M371.296,266.599h-64.087c-2.764,0-4.605-2.854-3.466-5.372l17.678-39.062
							c0.616-1.361,1.972-2.236,3.466-2.236h64.087c2.764,0,4.605,2.854,3.466,5.372l-17.678,39.062
							C374.145,265.725,372.79,266.599,371.296,266.599z"/>
						<path style="opacity:0.5;fill:#0A5487;" d="M358.909,245.578c0,2.591-4.032,4.691-9.007,4.691c-4.974,0-9.007-2.1-9.007-4.691
							c0-2.591,4.032-4.691,9.007-4.691C354.876,240.886,358.909,242.987,358.909,245.578z"/>
					</g>
				</g>
				<path style="fill:#F9AF9A;" d="M262.192,210.582c0,0,0.559-10.905-6.86-8.403c-7.419,2.502-13.493,7.439-21.235,20.599
					c-7.741,13.16-25.933,36.027-13.16,42.993c9.58,5.225,47.125,0.881,54.513,1.443c8.687,0.66,8.935-4.598,14.77-5.337
					c11.96-1.515,6.227-3.035-3.844-2.97c-3.994,0.026-8.109,1.335-10.25,1.607c-7.891,1.003-29.892-7.184-36.633-4.716
					c0,0,16.081-18.721,20.198-33.021"/>
				<path style="opacity:0.51;fill:#F9AF9A;" d="M232.526,257.521c0,0,3.656-2.358,6.967-1.723l2.612-4.063L232.526,257.521z"/>
				<path style="fill:#FCBA33;" d="M255.063,200.15c-12.958,2.125-33.777,38.75-35.647,47.905
					c0.962-3.138,20.481-1.286,23.546,2.983c4.592-7.074,13.95-19.899,16.729-28.26l6.532-15.869
					C266.223,206.909,262.789,198.882,255.063,200.15z"/>
				<path style="opacity:0.43;fill:#FCBA33;" d="M260.623,220.846c0,0,1.235,0.769,0.65,5.402
					c-0.585,4.633-18.311,24.789-18.311,24.789L260.623,220.846z"/>
			</g>
			<rect x="186.089" y="266.599" style="fill:#FFC300;" width="421.277" height="9.121"/>
			<path style="fill:#F9AF9A;" d="M484.533,262.479c-0.935-0.282-3.318-1.276-4.817-1.914c-1.003-0.427-2.106-0.633-3.213-0.579
				c-0.11,0.005-0.211,0.013-0.298,0.023c-0.179,0.021-0.824,0.053-1.615,0.092c-1.479,0.073-2.849-0.682-3.679-1.909
				c-0.029-0.042-0.05-0.07-0.063-0.079c-5.311-3.905-2.225-35.787-2.225-35.787s-3.708-32.078-6.953-41.813
				c-3.245-9.735-14.016-12.98-14.016-12.98c-7.12,4.422,9.279,51.482,8.844,58.452c-0.618,9.904,0.342,17.34,2.624,25.013
				c0.726,2.443,0.231,4.787,1.408,7.031l-0.068-1.963c0,0,1.741,8.215,6.764,10.838c1.288,0.673,3.741,0.973,4.883,0.999
				c1.142,0.026,3.156,1.066,5.041,1.308c1.884,0.243,3.368-0.688,2.674-1.556c-0.424-0.529-2.005-0.496-4.913-2.063
				c1.153,0.154,2.185-0.23,3.53-0.432c1.681,0.742,3.778,2.317,4.398,2.656c0.886,0.483,4.148,2.025,2.531-0.662
				c0.443,0.398,0.794,0.707,0.911,0.749c0.403,0.147,1.679,0.884,2.283,0.438C489.167,267.897,485.943,262.904,484.533,262.479z"/>
			<path style="fill:#299C90;" d="M471.546,257.138c0-10.581-1.657-43.764-1.657-43.764s-4.079-25.588-7.324-35.323
				c-3.244-9.732-15.865-12.051-15.87-12.052c-1.612-0.486-7.486,3.392-8.175,4.527c-1.591,2.619-0.692,7.466-0.909,10.523
				c-0.232,3.257,0.615,6.152,1.359,9.272c0.83,3.478,1.512,6.85,3.145,10.061c1.172,2.304,2.296,4.63,3.343,6.995
				c1.999,4.516,6.32,9.763,6.003,14.849c-0.618,9.904,9.061,37.675,9.061,37.675L471.546,257.138z"/>
			<path style="opacity:0.53;fill:#299C90;" d="M439.741,189.971c-0.357,4.029,0.441,8.077,2.301,11.669l10.94,21.122
				L439.741,189.971L439.741,189.971z"/>
			<g>
				<path style="fill:#063956;" d="M171.776,125.129c0,0,5.02,16.828,5.969,32.834c0.948,16.006-17.986,14.401-17.986,14.401
					L171.776,125.129z"/>
				<path style="fill:#0A5487;" d="M172.642,163.703l-1.017-10.363c3.388-1.065,9.535-3.26,12.8-2.61
					c2.222,0.442,4.664,1.448,6.586,3.583c4.723,5.248,25.36,34.241,23.658,41.119c-1.487,6.01-19.055,14.045-22.955,11.623
					c-6.249-3.881-7.979-8.042-10.258-15.019c-0.171-0.524-0.329-1.052-0.475-1.585L172.642,163.703z"/>
				<path style="fill:#FCB29A;" d="M158.675,139.212l-8.092-4.344c0,0,7.409,16.672,1.653,24.046
					c-3.839,4.919,20.583-1.17,20.583-1.17s-3.33-6.945-3.966-19.605C168.746,135.991,158.675,139.212,158.675,139.212z"/>
				<path style="opacity:0.3;fill:#F9AF9A;" d="M158.675,139.212l-8.092-4.344c0,0,7.409,16.672,1.653,24.046
					c-3.839,4.919,20.583-1.17,20.583-1.17s-3.33-6.945-3.966-19.605C168.746,135.991,158.675,139.212,158.675,139.212z"/>
				<path style="opacity:0.48;fill:#0A5487;" d="M203.848,203.728c-2.189,0.734-3.21,3.914-7.049,3.156h-1.709
					c-0.937-0.587-2.52,0.854-3.376,0.171l-7.358-20.684l2.744-6.325l2.13-9.27C189.23,170.776,206.834,202.726,203.848,203.728z"/>
				<g>
					<path style="fill:#FCBA33;" d="M143.836,386.473c-0.065,0.537-0.118,0.982-0.154,1.289
						C143.718,387.457,143.771,387.006,143.836,386.473z"/>
					<polygon style="fill:#FCBA33;" points="178.419,416.253 149.995,415.612 178.419,416.253 					"/>
					<path style="fill:#FCBA33;" d="M143.646,388.07c-0.004,0.036-0.011,0.091-0.014,0.119
						C143.636,388.16,143.642,388.109,143.646,388.07z"/>
					<path style="fill:#FCBA33;" d="M161.428,393.602l-19.963-8.078c1.169-9.559,8.9-49.211,17.204-63.973
						c9.447-16.794,13.973-37.141,13.973-37.141l-5.079-28.34l11.902-27.29l17.844,2.099c0,0,14.681,67.984,11.007,83.203
						C204.642,329.302,160.544,394.929,161.428,393.602z"/>
					<path style="fill:#FCBA33;" d="M134.824,404.201c-0.955-0.954-1.542-1.742-1.542-2.234v0
						C133.281,402.459,133.869,403.246,134.824,404.201z"/>
					<path style="fill:#FCBA33;" d="M138.57,407.438c0.979,0.774,2.024,1.565,3.068,2.336
						C140.594,409.003,139.549,408.212,138.57,407.438z"/>
					<path style="fill:#F23A30;" d="M143.682,387.762c-0.016,0.135-0.026,0.221-0.036,0.308
						C143.656,387.983,143.666,387.895,143.682,387.762z"/>
					<path style="fill:#F23A30;" d="M143.862,386.262L143.862,386.262c-0.009,0.077-0.017,0.138-0.026,0.211
						C143.845,386.398,143.852,386.341,143.862,386.262z"/>
					<polygon style="fill:#F23A30;" points="178.419,416.253 178.419,416.253 166.559,409.741 					"/>
					<path style="fill:#F23A30;" d="M133.281,401.967c0-0.492,0.363-1.279,0.954-2.234
						C133.645,400.688,133.281,401.475,133.281,401.967L133.281,401.967z"/>
					<path style="fill:#F23A30;" d="M143.173,388.801c0.283-0.306,0.444-0.479,0.444-0.479s0.005-0.048,0.015-0.133
						c-0.009,0.082-0.015,0.133-0.015,0.133S143.456,388.495,143.173,388.801z"/>
					<path style="fill:#F23A30;" d="M143.173,388.801c-0.565,0.613-1.615,1.763-2.826,3.147
						C141.558,390.564,142.608,389.414,143.173,388.801z"/>
					<path style="fill:#F23A30;" d="M140.347,391.948c-1.514,1.73-3.28,3.825-4.668,5.692
						C137.066,395.772,138.833,393.677,140.347,391.948z"/>
					<path style="fill:#F23A30;" d="M132.76,399.549c0.394-0.636,0.888-1.347,1.443-2.094c1.388-1.867,3.154-3.962,4.668-5.692
						c1.211-1.384,2.261-2.534,2.826-3.147c0.283-0.306,0.444-0.479,0.444-0.479s0.006-0.052,0.015-0.133
						c0.003-0.028,0.01-0.083,0.014-0.119c0.01-0.087,0.02-0.173,0.036-0.308c0.036-0.307,0.089-0.752,0.154-1.289
						c0.009-0.073,0.016-0.134,0.026-0.211l17.566,7.34c-0.885,1.327-1.382,2.068-1.382,2.068v10.496l6.512,3.575l11.86,6.512
						l-28.423-0.641c0,0-4.178-2.755-8.357-5.839c-1.045-0.771-2.089-1.562-3.068-2.336c-1.469-1.161-2.791-2.283-3.746-3.237
						c-0.955-0.954-1.542-1.742-1.542-2.234C131.806,401.291,132.17,400.504,132.76,399.549z"/>
					<path style="opacity:0.18;fill:#FCBA33;" d="M161.428,393.602l-19.963-8.078c1.169-9.559,8.9-49.211,17.204-63.973
						c9.447-16.794,13.973-37.141,13.973-37.141l-5.079-28.34l11.902-27.29l17.844,2.099c0,0,14.681,67.984,11.007,83.203
						C204.642,329.302,160.544,394.929,161.428,393.602z"/>
					<path style="opacity:0.34;fill:#FCBA33;" d="M176.943,272.557l1.998-25.841c0,0,2.683-6.676,4.732,17.778
						c0.508,6.068,2.41,11.951,5.643,17.111c2.765,4.413,5.374,9.008,3.947,8.628c-1.689-0.451-4.515-1.995-6.074-2.619
						c0.112,0.691,0.221,1.374,0.33,2.051c2.547,3.544,7.407,10.412,5.206,10.266c-1.186-0.079-2.534-0.227-3.685-0.369
						c0.652,4.503,1.047,7.777,0.979,8.733c-0.307,4.299-21.166,35.644-21.166,35.644L176.943,272.557z"/>
					<path style="opacity:0.55;fill:#F23A30;" d="M132.76,399.549c0.394-0.636,0.888-1.347,1.443-2.094
						c1.388-1.867,3.154-3.962,4.668-5.692c1.211-1.384,2.261-2.534,2.826-3.147c0.283-0.306,0.444-0.479,0.444-0.479
						s0.006-0.052,0.015-0.133c0.003-0.028,0.01-0.083,0.014-0.119c0.01-0.087,0.02-0.173,0.036-0.308
						c0.036-0.307,0.089-0.752,0.154-1.289c0.009-0.073,0.016-0.134,0.026-0.211l17.566,7.34c-0.885,1.327-1.382,2.068-1.382,2.068
						v10.496l6.512,3.575l11.86,6.512l-28.423-0.641c0,0-4.178-2.755-8.357-5.839c-1.045-0.771-2.089-1.562-3.068-2.336
						c-1.469-1.161-2.791-2.283-3.746-3.237c-0.955-0.954-1.542-1.742-1.542-2.234C131.806,401.291,132.17,400.504,132.76,399.549z"
						/>
				</g>
				<g>
					<path style="fill:#F23A30;" d="M164.832,397.272l22.844,12.879c1.933,1.09,2.977,3.273,2.612,5.461
						c0,0-40.935,1.177-44.164-0.922c-3.229-2.099,3.754-18.496,3.754-18.496L164.832,397.272z"/>
					<path style="fill:#FCBA33;" d="M145.334,332.168c0.043-7.929,6.585-19.447,6.585-19.447s-11.219-38.282-10.17-56.651
						c1.05-18.368,10.752-28.865,10.752-28.865c16.794-5.248,28.734,7.463,28.734,7.463l-0.111,78.592l-14.448,84.012l-18.643-0.709
						C148.033,396.563,145.271,343.937,145.334,332.168z"/>
					<path style="opacity:0.18;fill:#FCBA33;" d="M141.749,256.07c1.05-18.368,10.752-28.865,10.752-28.865
						c6.245-1.952,11.817-1.418,16.356,0.021c-0.568,0.102-1.126,0.175-1.708,0.317c0,0-10.353,9.855-12.573,28.119
						c-1.448,11.909,1.769,32.6,4.183,45.558c1.31,7.031,0.308,14.252-2.6,20.786c-1.422,3.196-2.652,6.751-2.865,9.827
						c-0.815,11.742-1.419,64.437-1.419,64.437l6.84,0.7l-10.681-0.406c0,0-2.763-52.626-2.699-64.396
						c0.043-7.929,6.585-19.447,6.585-19.447S140.7,274.438,141.749,256.07z"/>
				</g>
				<path style="fill:#0A5487;" d="M172.178,152.972c0,0-2.214,5.375-18.877,3.447c-2.15-0.249-8.741,1.955-10.766,5.285
					c-6.075,9.989-6.055,32.308-1.725,38.212c5.773,7.872,6.628,27.801,3.479,37.773c-3.149,9.971,54.461,5.687,54.495-6.809
					c0.04-15.153-4.642-33.862-6.533-45.134c-1.098-6.545-5.55-25.702-9.82-34.028C181.338,149.589,175.524,152.015,172.178,152.972
					z"/>
				<g>
					<path style="fill:#AEE0F4;" d="M143.654,222.645l32.471,13.726c2.108,0.837,4.161-0.567,4.696-1.835l18.771-47.736
						c0.536-1.267-0.057-2.729-1.325-3.264l-31.387-14.016c-1.267-0.536-3.812,0.348-4.347,1.615l-20.239,47.879
						C141.758,220.281,142.386,222.109,143.654,222.645z"/>
					<path style="fill:#D9F1FF;" d="M145.094,222.101l32.471,13.725c1.267,0.536,2.729-0.057,3.264-1.324l20.239-47.879
						c0.536-1.267-0.057-2.729-1.324-3.264l-32.471-13.725c-1.267-0.536-2.729,0.057-3.264,1.324l-20.239,47.879
						C143.234,220.104,143.827,221.566,145.094,222.101z"/>
					<path style="fill:#C6E7F7;" d="M168.284,203.133c0.222,2.284,2.254,3.954,4.537,3.732c2.284-0.222,3.954-2.254,3.732-4.538
						c-0.222-2.284-2.254-3.955-4.538-3.732S168.061,200.849,168.284,203.133z"/>
				</g>
				<path style="opacity:0.48;fill:#0A5487;" d="M151.57,206.94l-2.518-1.692l28.995,6.039c0,0,0.495,1.738,2.485,1.68
					c1.99-0.058,8.138,0.018,8.138,0.018l-6.148,4.346c0,0-12.823,1.105-14.923,0C165.499,216.225,151.57,206.94,151.57,206.94z"/>
				<path style="fill:#F9AF9A;" d="M198.283,218.091c-0.175-0.784-1.363-0.185-4.051,0.402c-0.1,0.022-0.206,0.057-0.318,0.081
					c-0.447,0.054-0.91,0.097-1.373,0.124c-0.257,0.003-0.521-0.002-0.786-0.012c2.183-0.329,5.111-1.362,5.033-2.118
					c-0.103-1.004-1.21-0.282-4.627,0.438c-2.202,0.464-3.966,0.3-4.558-0.226c-1.525-1.355,3.474-4.059,1.066-3.795
					c-0.802,0.088-2.698,0.634-3.648,0.974c-1.814,0.649-5.554,1.901-6.798,1.434c-2.367-0.887-4.383-0.204-4.383-0.204
					s-6.521-0.813-1.566,3.763c1.658,1.531,0.821,3.22,3.245,4.115c4.818,1.78,13.444,1.836,16.614,1.167
					c0.205-0.043,0.409-0.081,0.608-0.121c1.638-0.256,2.977-0.833,3-1.276c0.036-0.675-1.985-0.47-3.45-0.139
					c-0.42,0.095-0.926,0.128-1.433,0.128c2.94-0.244,6.263-1.252,6.31-2.006c0.051-0.802-2.393-0.378-4.138-0.001
					c-0.484,0.105-1.06,0.123-1.639,0.097C194.412,220.461,198.549,219.284,198.283,218.091z"/>
				<path style="fill:#F9AF9A;" d="M159.944,194.431c0.348-0.724,1.369,0.129,3.854,1.313c0.093,0.044,0.187,0.103,0.292,0.151
					c0.423,0.155,0.864,0.301,1.309,0.433c0.249,0.061,0.507,0.117,0.768,0.167c-2.051-0.816-4.667-2.488-4.42-3.207
					c0.329-0.954,1.242,0.001,4.406,1.479c2.039,0.952,3.794,1.194,4.49,0.816c1.793-0.973-2.46-4.743-0.176-3.938
					c0.761,0.268,2.483,1.231,3.331,1.778c1.619,1.044,4.976,3.114,6.294,2.943c2.507-0.326,4.315,0.798,4.315,0.798
					s6.535,0.691,0.67,4.02c-1.963,1.114-1.532,2.027-4.096,2.348c-5.097,0.637-13.509-0.347-16.444-1.719
					c-0.19-0.089-0.379-0.172-0.565-0.256c-1.537-0.621-2.709-1.488-2.631-1.925c0.118-0.666,2.04-0.007,3.391,0.649
					c0.387,0.188,0.872,0.335,1.366,0.45c-2.807-0.906-5.814-2.643-5.689-3.388c0.133-0.792,2.417,0.176,4.029,0.94
					c0.448,0.212,1.004,0.361,1.574,0.467C163.175,197.619,159.413,195.532,159.944,194.431z"/>
				<path style="fill:#0A5487;" d="M155.241,167.365c-0.49-4.844-8.839-8.909-8.839-8.909s-8.584,1.873-13.673,20.855
					c-4.712,17.573-6.473,32.413-1.8,37.671c4.272,4.808,30.563,9.27,44.648,7.662l2.84-11.308c0,0-24.228-9.217-32.755-8.065
					C145.661,205.27,156.067,175.539,155.241,167.365z"/>
				<path style="opacity:0.48;fill:#0A5487;" d="M152.66,175.695l-6.963,28.214c0,0,8.206-18.775,8.525-21.861
					C154.681,177.613,152.66,175.695,152.66,175.695z"/>
				<g>
					<path style="fill:#F9AF9A;" d="M177.611,130.855c0.079,0.291,0.15,0.584,0.208,0.881c1.031,5.221-0.89,9.985-3.208,14.463
						c-5.975,11.546-24.047-1.62-25.775-11.565c-1.938-11.152,2.315-20.559,11.059-23.037c5.423-1.537,12.096-1.326,15.773,7.761
						c0.787,1.945,0.434,4.075,0.757,6.103C176.72,127.3,177.125,129.068,177.611,130.855z"/>
					<path style="opacity:0.41;fill:#FCB29A;" d="M159.896,111.596c2.14-0.607,4.474-0.929,6.742-0.553
						c-0.177,0.046-0.356,0.088-0.531,0.137c-8.744,2.478-11.328,9.269-9.39,20.421c1.105,6.359,7.414,19.042,14.258,18.331
						c-7.653,3.719-20.683-6.929-22.138-15.299C146.899,123.481,151.152,114.074,159.896,111.596z"/>
				</g>
				<path style="fill:#0A5487;" d="M179.428,195.171l-1.42,9.473c0,0,16.265,5.926,28.176,3.662
					c8.443-1.605,10.053-10.95,8.485-15.271c-0.033-0.958-1.064-8.632-15.889-0.999C193.178,194.92,179.428,195.171,179.428,195.171
					z"/>
				<path style="fill:#063956;" d="M153.67,124.077c0,0,0.62-5.3,4.003-4.564c10.632,2.312,19.95-0.052,20.637-5.66
					c0.687-5.608-5.104-7.67-11.463-6.674c-6.359,0.996-14.586-1.904-20.693,3.465s-7.151,12.729-5.712,21.629
					c1.439,8.899-4.993,13.401-11.86,25.748c-6.834,12.289-9.264,35.75,2.975,48.304c-1.132-1.161,0.749-9.911,0.919-11.586
					c1.026-10.074,2.718-19.178,7.338-28.311c1.709-3.377,3.777-6.181,7.382-7.59c2.995-1.171,7.148-1.692,8.675-5.071
					C162.14,139.9,153.17,129.587,153.67,124.077z"/>
				<path style="fill:#063956;" d="M152.069,146.085l5.039,1.582c0,0,0.914,9.193-8.055,10.604
					c-8.969,1.412-5.051,16.162-5.281,25.381c0,0-2.657-7.675-2.996-13.06c-0.397-6.3,1.326-13.79,7.606-14.629
					C152.587,155.401,152.069,146.085,152.069,146.085z"/>
			</g>
			<g>
				<g>
					<g>
						<rect x="545.004" y="331.847" style="fill:#063956;" width="15.327" height="83.765"/>
						<path style="fill:#063956;" d="M598.269,416.253h-90.261l0,0c0-2.859,2.317-5.176,5.176-5.176h79.909
							C595.951,411.077,598.269,413.394,598.269,416.253L598.269,416.253z"/>
					</g>
					<path style="fill:#299C90;" d="M586.995,206.712l58.082,3.541c11.467,0.699,18.344,13.051,12.898,23.166l-48.344,89.796
						c-4.693,8.717-13.794,14.153-23.694,14.153H511.88c-9.606,0-17.393-7.787-17.393-17.393l0,0c0-3.85,1.277-7.59,3.631-10.636
						l68.486-93.082C571.34,209.82,579.018,206.226,586.995,206.712z"/>
				</g>
				<g>
					<path style="fill:#F9AF9A;" d="M554.402,289.403c0,0-50.132-19.496-65.45-16.711c-15.318,2.785-52.917,100.729-52.917,100.729
						s-38.992,13.461-34.35,16.247c4.642,2.785,46.419,1.393,49.204,0c2.785-1.393,1.392-12.069,1.392-12.069
						s19.032-20.424,30.172-32.029c11.141-11.605,20.888-29.708,20.888-38.063c0,0,40.013,19.867,62.275,14.876
						C583.789,318.308,554.402,289.403,554.402,289.403z"/>
					<path style="fill:#F9AF9A;" d="M525.066,261.557l-18.989-16.752l0,0c-5.343,2.068-10.231,5.157-14.392,9.094l-51.676,48.899
						c0,0-31.129-8.753-35.075-4.576c-3.787,4.01,35.576,24.123,40.588,23.621c5.012-0.501,4.511-9.022,4.511-9.022
						s21.051-3.209,41.099-13.383C511.18,289.265,525.066,261.557,525.066,261.557z"/>
					<g>
						<path style="fill:#F9AF9A;" d="M523.026,205.384c0,0-1.707-6.691-3.601-8.54c-1.895-1.849-13.663-5.238-15.77-4.223
							c-2.107,1.015,0.603,3.101,4.004,3.907c3.401,0.806,1.607,4.361,2.925,8.159c1.318,3.799,3.95,4.134,4.804,4.689
							c0.854,0.555,3.391,6.939,6.264,10.86c2.873,3.921,9.021-1.805,9.021-1.805L523.026,205.384z"/>
						<path style="fill:#F9AF9A;" d="M513.626,199.461l-4.191-1.721c0,0-1.974,2.649-0.564,3.525
							c1.072,0.666-0.843,2.412,0.604,3.152c1.016,0.52,1.135,2.421,4.1,4.159C516.539,210.315,513.626,199.461,513.626,199.461z"/>
					</g>
					<path style="opacity:0.2;fill:#F9AF9A;" d="M554.402,289.403c0,0-50.132-19.496-65.45-16.711
						c-15.318,2.785-52.917,100.729-52.917,100.729s-38.992,13.461-34.35,16.247c4.642,2.785,46.419,1.393,49.204,0
						c2.785-1.393,1.392-12.069,1.392-12.069s19.032-20.424,30.172-32.029c11.141-11.605,20.888-29.708,20.888-38.063
						c0,0,40.013,19.867,62.275,14.876C583.789,318.308,554.402,289.403,554.402,289.403z"/>
					<path style="opacity:0.2;fill:#F9AF9A;" d="M527.789,286.618l-13.735-7.847c0,0,10.145,24.867,11.011,32.913
						c0.867,8.046,12.935-7.117,12.935-7.117L527.789,286.618z"/>
					<path style="fill:#F9AF9A;" d="M593.931,296.504c0,0-8.571,20.635-20.791,26.081c-15.118,6.737-33.1-1.74-45.202-25.896
						c-6.77-13.512-14.776-19.699-20.883-21.785c-3.343-1.142-5.919-3.312-7.588-6.426c-4.141-7.724-6.366-17.235,4.711-22.746
						c12.058-5.999,27.99,4.165,41.494,14.944C555.768,268.736,593.931,296.504,593.931,296.504z"/>
					<path style="fill:#063956;" d="M409.991,383.542c-5.892,2.68-9.996,5.111-8.306,6.125c4.642,2.785,46.419,1.393,49.204,0
						c2.785-1.393,1.392-12.069,1.392-12.069S435.78,387.419,409.991,383.542z"/>
					<path style="fill:#063956;" d="M404.934,298.222c-3.787,4.01,35.576,24.123,40.588,23.621c5.012-0.501,4.511-9.022,4.511-9.022
						s-25.244-3.33-38.241-15.662C408.462,296.96,405.892,297.208,404.934,298.222z"/>
					<path style="fill:#F23A30;" d="M535.118,252.907c0,0,5.277,35.06-20.212,59.713c0,0,46.592,25.661,65.557,4.703
						c18.965-20.957,12.601-28.091,12.601-28.091l-36.922-20.552C556.142,268.679,539.094,255.403,535.118,252.907z"/>
					<path style="fill:#F9AF9A;" d="M627.217,202.398l-2.219,7.857c0,0-7.303,11.667-5.857,14.608
						c1.446,2.941-17.495-2.734-17.495-2.734l-3.377-0.921c0,0,9.756-11.19,11.111-17.293
						C610.734,197.811,627.217,202.398,627.217,202.398z"/>
					<path style="opacity:0.3;fill:#F9AF9A;" d="M627.217,202.398l-2.219,7.857c0,0-7.303,11.667-5.857,14.608
						c1.446,2.941-17.495-2.734-17.495-2.734l-3.377-0.921c0,0,9.756-11.19,11.111-17.293
						C610.734,197.811,627.217,202.398,627.217,202.398z"/>
					<path style="fill:#D9F1FF;" d="M589.908,221.396c-15.815,21.331-35.871,39.536-35.031,47.964
						c1.058,10.618,34.922,35.824,40.061,25.473c16.472-33.182,29.793-57.798,29.793-57.798s-0.135-20.039-4.609-18.416
						c-13.421,4.868-15.654,0.949-21.378,0.407C594.858,218.658,591.793,218.854,589.908,221.396z"/>
					<path style="fill:#D9F1FF;" d="M611.224,262.765c10.299-19.03,33.128-24.67,54.159-51.528c2.17-2.771,3.207-6.361,2.377-9.781
						c-0.875-3.604-3.693-7.512-11.466-8.727c-15.546-2.429-26.234-3.401-26.234-3.401l-0.995,9.613l17.026,7.39
						c0,0-26.719,9.23-33.521,17.003C605.548,231.362,607.247,270.114,611.224,262.765z"/>
					<polygon style="fill:#D9F1FF;" points="654.539,203.253 646.092,206.332 627.86,198.492 					"/>
					<path style="fill:#D9F1FF;" d="M590.5,230.136l1.821-10.646l-36.233,12.59l-31.848-26.147l-9.23,10.831
						c0,0,18.265,30.404,35.517,35.417c8.308,2.414,34.923-1.958,34.923-1.958L590.5,230.136z"/>
					<g>
						<path style="fill:#F9AF9A;" d="M623.336,176.346c-6.471-3.664-12.987-3.103-20.036,3.878
							c-4.212,4.172-4.144,10.18-7.125,12.104c-1.965,1.268-2.759,0.59-2.548,1.842c0.282,1.674,1.939,2.504,1.939,2.504
							s-1.892,10.968,3.548,15.298c4.894,3.895,17.01,4.052,23.474-2.982C626.559,204.668,638.168,184.744,623.336,176.346z"/>
						<path style="opacity:0.3;fill:#F9AF9A;" d="M623.336,176.346c-1.801-1.02-3.607-1.698-5.426-2.016
							c8.458,8.303,0.463,25.589-2.676,29.576c-5.247,6.665-11.039,9.792-16.491,7.715c0.126,0.115,0.236,0.243,0.37,0.35
							c4.894,3.895,15.703,4.153,22.974-2.53C626.409,205.47,638.168,184.744,623.336,176.346z"/>
					</g>
					<path style="fill:#063956;" d="M621.2,187.561c1.735-1.415,0.984-1.893-1.951-1.595c-4.827,0.492-15.842-2.194-17.156-8.768
						c-1.116-5.585,3.778-9.251,10.866-7.074c6.164,1.892,11.442,5.427,15.562,6.079c8.801,1.393,13.733,13.344,8.333,22.863
						c-7.293,12.856-2.736,19.768-4.853,29.744c-4.631,21.817-19.815,24.474-35.061,24.296c0,0,8.052-6.504,8.746-16.01
						c0.363-4.97-1.991-9.861,4.154-17.321C617.282,210.737,608.001,198.327,621.2,187.561z"/>
					<path style="opacity:0.39;fill:#F23A30;" d="M531.197,286.969c-3.259,9.721-10.404,19.956-16.292,25.651
						c0,0,46.592,25.661,65.557,4.703c1.724-1.906,11.021-12.447,13.468-20.819C577.921,314.037,535.683,296.404,531.197,286.969z"
						/>
					<path style="fill:#D9F1FF;" d="M526.034,232.262c6.754,8.32,15.752,17.378,24.494,19.918c2.918,0.848,8.096,0.857,13.584,0.514
						l0.001-0.001l16.196-18.575c0,0-13.572,12.741-29.359,10.686C539.153,243.27,526.108,232.337,526.034,232.262z"/>
				</g>
			</g>
		</g>
	</g>
</g>
<g id="DESIGNED_BY_FREEPIK">
	<g>
		<g id="XMLID_29_">
			<g id="XMLID_48_">
				<path id="XMLID_56_" style="fill:#050D0F;" d="M385.104,472.129c-0.432,0.443-0.803,0.931-1.108,1.453l-0.465-0.241
					c-0.067-0.298-0.349-0.503-0.659-0.466c-0.331,0.039-0.568,0.339-0.529,0.67c0.039,0.331,0.339,0.568,0.67,0.529
					c0.066-0.008,0.127-0.026,0.184-0.052l0.451,0.234c-0.251,0.554-0.433,1.139-0.539,1.744l0.746,0.132
					c0.23-1.306,0.85-2.507,1.792-3.473L385.104,472.129z"/>
				<path id="XMLID_55_" style="fill:#050D0F;" d="M390.592,469.827c-0.171,0-0.341,0.006-0.51,0.017l-0.074-0.626
					c0.188-0.149,0.296-0.389,0.266-0.644c-0.046-0.393-0.402-0.674-0.795-0.628c-0.393,0.046-0.674,0.402-0.628,0.795
					c0.03,0.254,0.189,0.461,0.404,0.564l0.074,0.624c-0.714,0.116-1.403,0.332-2.06,0.646l0.327,0.684
					c0.934-0.447,1.942-0.673,2.995-0.673c0.496,0,0.993,0.053,1.475,0.158l0.161-0.741
					C391.692,469.885,391.142,469.827,390.592,469.827z"/>
				<path id="XMLID_54_" style="fill:#050D0F;" d="M397.194,472.374c0.331-0.04,0.566-0.341,0.526-0.672
					c-0.04-0.331-0.341-0.566-0.672-0.526c-0.309,0.038-0.535,0.304-0.53,0.609l-0.416,0.363c-0.418-0.43-0.889-0.813-1.408-1.139
					l-0.404,0.641c1.134,0.715,2.021,1.726,2.563,2.925l0.69-0.313c-0.251-0.554-0.567-1.072-0.942-1.545l0.402-0.351
					C397.065,472.379,397.129,472.382,397.194,472.374z"/>
				<path id="XMLID_53_" style="fill:#050D0F;" d="M390.044,480.035c-0.386,0.023-0.775,0.035-1.157,0.035
					c-0.88,0-1.733-0.061-2.478-0.179c-0.39-0.062-0.846-0.155-1.27-0.292c1.046,1.861,3.069,3.125,5.388,3.125
					c2.855,0,5.262-1.916,5.95-4.504c-0.682,0.449-1.505,0.825-2.459,1.123C392.839,479.71,391.463,479.95,390.044,480.035z"/>
				<path id="XMLID_49_" style="fill:#050D0F;" d="M390.592,471.343c-3.352,0-6.08,2.666-6.08,5.944
					c0,0.426,0.046,0.849,0.137,1.261c0.673,0.483,2.706,0.89,5.348,0.731c2.879-0.173,5.297-0.957,6.672-2.159
					c-0.006-0.195-0.021-0.39-0.045-0.582C396.244,473.576,393.65,471.343,390.592,471.343z M388.432,477.858
					c-1.02,0-1.85-0.83-1.85-1.85c0-1.02,0.83-1.85,1.85-1.85c1.02,0,1.85,0.83,1.85,1.85
					C390.282,477.028,389.452,477.858,388.432,477.858z M393.17,476.949c-0.75,0-1.36-0.61-1.36-1.36c0-0.75,0.61-1.361,1.36-1.361
					c0.75,0,1.361,0.61,1.361,1.361C394.53,476.339,393.92,476.949,393.17,476.949z"/>
			</g>
			<path id="XMLID_46_" style="fill:#050D0F;" d="M406.595,473.21c-0.295-0.116-0.805-0.309-1.382-0.237
				c-0.551,0.068-0.844,0.34-0.844,1.007v0.866h2.228v1.717h-2.228v5.455h-1.932v-5.455h-1.34v-1.717h1.34v-0.888
				c0-1.68,0.896-2.783,2.568-2.783c0.643,0,1.157,0.122,1.59,0.308L406.595,473.21z"/>
			<path id="XMLID_44_" style="fill:#050D0F;" d="M411.298,476.542c-0.177-0.03-0.358-0.046-0.526-0.046
				c-0.895,0-1.51,0.548-1.51,1.613v3.908h-1.932v-7.172h1.873v0.785c0.451-0.674,1.14-0.977,2.021-0.977
				c0.414,0,0.848,0.128,1.094,0.337L411.298,476.542z"/>
			<path id="XMLID_41_" style="fill:#050D0F;" d="M418.965,478.42c0,0.222-0.015,0.489-0.037,0.651h-5.085
				c0.207,1.036,0.933,1.488,1.843,1.488c0.622,0,1.295-0.252,1.813-0.688l1.133,1.243c-0.814,0.748-1.85,1.088-3.057,1.088
				c-2.198,0-3.723-1.495-3.723-3.753c0-2.257,1.48-3.797,3.627-3.797C417.544,474.653,418.958,476.185,418.965,478.42z
				 M413.851,477.754h3.175c-0.177-0.918-0.733-1.436-1.562-1.436C414.554,476.318,414.021,476.866,413.851,477.754z"/>
			<path id="XMLID_38_" style="fill:#050D0F;" d="M426.618,478.42c0,0.222-0.015,0.489-0.037,0.651h-5.085
				c0.207,1.036,0.932,1.488,1.843,1.488c0.622,0,1.295-0.252,1.814-0.688l1.132,1.243c-0.814,0.748-1.85,1.088-3.057,1.088
				c-2.198,0-3.723-1.495-3.723-3.753c0-2.257,1.48-3.797,3.627-3.797C425.197,474.653,426.611,476.185,426.618,478.42z
				 M421.504,477.754h3.175c-0.178-0.918-0.733-1.436-1.562-1.436C422.207,476.318,421.674,476.866,421.504,477.754z"/>
			<path id="XMLID_35_" style="fill:#050D0F;" d="M434.964,478.427c0,2.154-1.495,3.775-3.471,3.775
				c-0.962,0-1.643-0.378-2.109-0.933v3.708h-1.924v-10.133h1.887v0.792c0.466-0.585,1.155-0.984,2.139-0.984
				C433.469,474.653,434.964,476.273,434.964,478.427z M429.287,478.427c0,1.132,0.747,1.976,1.843,1.976
				c1.14,0,1.85-0.881,1.85-1.976c0-1.095-0.711-1.976-1.85-1.976C430.035,476.451,429.287,477.295,429.287,478.427z"/>
			<path id="XMLID_32_" style="fill:#050D0F;" d="M438.067,472.499c0,0.696-0.54,1.229-1.236,1.229
				c-0.696,0-1.229-0.533-1.229-1.229c0-0.696,0.533-1.243,1.229-1.243C437.527,471.255,438.067,471.803,438.067,472.499z
				 M437.809,482.017h-1.932v-7.172h1.932V482.017z"/>
			<path id="XMLID_30_" style="fill:#050D0F;" d="M441.032,477.399l2.702-2.554h2.368l-3.479,3.375l3.501,3.797h-2.376l-2.716-2.901
				v2.901H439.1v-10.658h1.932V477.399z"/>
		</g>
		<g>
			<path style="fill:#050D0F;" d="M309.412,481.952v-1.055c-0.527,0.718-1.391,1.23-2.387,1.23c-1.846,0-3.149-1.406-3.149-3.706
				c0-2.256,1.289-3.721,3.149-3.721c0.952,0,1.816,0.469,2.387,1.245v-3.765h1.099v9.77H309.412z M309.412,480.033v-3.208
				c-0.395-0.615-1.245-1.143-2.124-1.143c-1.421,0-2.27,1.172-2.27,2.739c0,1.567,0.85,2.724,2.27,2.724
				C308.168,481.146,309.017,480.649,309.412,480.033z"/>
			<path style="fill:#050D0F;" d="M311.932,478.407c0-2.051,1.465-3.706,3.486-3.706c2.139,0,3.398,1.67,3.398,3.794v0.279h-5.727
				c0.088,1.333,1.026,2.446,2.549,2.446c0.806,0,1.626-0.322,2.182-0.893l0.527,0.718c-0.703,0.703-1.655,1.084-2.812,1.084
				C313.44,482.128,311.932,480.619,311.932,478.407z M315.404,475.61c-1.509,0-2.256,1.274-2.315,2.358h4.643
				C317.718,476.913,317.015,475.61,315.404,475.61z"/>
			<path style="fill:#050D0F;" d="M319.607,481.014l0.571-0.791c0.469,0.542,1.362,1.011,2.329,1.011c1.084,0,1.67-0.513,1.67-1.216
				c0-1.714-4.38-0.659-4.38-3.281c0-1.098,0.952-2.036,2.636-2.036c1.201,0,2.051,0.454,2.622,1.026l-0.513,0.762
				c-0.424-0.513-1.201-0.894-2.109-0.894c-0.967,0-1.567,0.483-1.567,1.113c0,1.553,4.38,0.527,4.38,3.281
				c0,1.187-0.952,2.139-2.783,2.139C321.306,482.128,320.325,481.776,319.607,481.014z"/>
			<path style="fill:#050D0F;" d="M326.477,473.134c0-0.41,0.337-0.747,0.732-0.747c0.41,0,0.747,0.337,0.747,0.747
				c0,0.41-0.337,0.732-0.747,0.732C326.814,473.866,326.477,473.544,326.477,473.134z M326.667,481.952v-7.075h1.099v7.075H326.667
				z"/>
			<path style="fill:#050D0F;" d="M329.582,483.768l0.556-0.82c0.586,0.703,1.289,0.967,2.3,0.967c1.172,0,2.27-0.571,2.27-2.124
				v-1.011c-0.513,0.718-1.377,1.26-2.373,1.26c-1.845,0-3.149-1.377-3.149-3.662c0-2.27,1.289-3.677,3.149-3.677
				c0.952,0,1.802,0.469,2.373,1.245v-1.069h1.099v6.87c0,2.344-1.641,3.076-3.369,3.076
				C331.237,484.823,330.417,484.589,329.582,483.768z M334.709,479.916v-3.091c-0.381-0.615-1.23-1.143-2.109-1.143
				c-1.421,0-2.27,1.128-2.27,2.695c0,1.553,0.849,2.695,2.27,2.695C333.478,481.073,334.328,480.531,334.709,479.916z"/>
			<path style="fill:#050D0F;" d="M342.413,481.952v-4.629c0-1.245-0.63-1.641-1.582-1.641c-0.865,0-1.685,0.527-2.095,1.099v5.17
				h-1.099v-7.075h1.099v1.025c0.498-0.586,1.465-1.201,2.519-1.201c1.48,0,2.256,0.747,2.256,2.285v4.966H342.413z"/>
			<path style="fill:#050D0F;" d="M344.932,478.407c0-2.051,1.465-3.706,3.486-3.706c2.138,0,3.398,1.67,3.398,3.794v0.279h-5.727
				c0.088,1.333,1.025,2.446,2.549,2.446c0.806,0,1.626-0.322,2.183-0.893l0.527,0.718c-0.703,0.703-1.655,1.084-2.812,1.084
				C346.441,482.128,344.932,480.619,344.932,478.407z M348.404,475.61c-1.509,0-2.256,1.274-2.314,2.358h4.643
				C350.718,476.913,350.015,475.61,348.404,475.61z"/>
			<path style="fill:#050D0F;" d="M358.35,481.952v-1.055c-0.527,0.718-1.392,1.23-2.388,1.23c-1.846,0-3.149-1.406-3.149-3.706
				c0-2.256,1.289-3.721,3.149-3.721c0.952,0,1.817,0.469,2.388,1.245v-3.765h1.098v9.77H358.35z M358.35,480.033v-3.208
				c-0.396-0.615-1.245-1.143-2.124-1.143c-1.421,0-2.27,1.172-2.27,2.739c0,1.567,0.849,2.724,2.27,2.724
				C357.105,481.146,357.954,480.649,358.35,480.033z"/>
			<path style="fill:#050D0F;" d="M364.692,481.952v-9.77h1.099v3.765c0.572-0.776,1.421-1.245,2.388-1.245
				c1.845,0,3.149,1.465,3.149,3.721c0,2.299-1.304,3.706-3.149,3.706c-0.996,0-1.86-0.513-2.388-1.23v1.055H364.692z
				 M367.9,481.146c1.436,0,2.286-1.157,2.286-2.724c0-1.567-0.85-2.739-2.286-2.739c-0.864,0-1.728,0.527-2.109,1.143v3.208
				C366.171,480.649,367.036,481.146,367.9,481.146z"/>
			<path style="fill:#050D0F;" d="M372.529,483.724c0.161,0.073,0.425,0.117,0.601,0.117c0.483,0,0.806-0.161,1.055-0.747
				l0.469-1.069l-2.959-7.148h1.187l2.358,5.801l2.344-5.801h1.201l-3.545,8.51c-0.425,1.025-1.143,1.421-2.08,1.435
				c-0.234,0-0.601-0.044-0.806-0.103L372.529,483.724z"/>
		</g>
	</g>
</g>
</svg>
