<?xml version="1.0" encoding="utf-8"?>
<!-- Generator: Adobe Illustrator 27.5.0, SVG Export Plug-In . SVG Version: 6.00 Build 0)  -->
<svg version="1.1" xmlns="http://www.w3.org/2000/svg" xmlns:xlink="http://www.w3.org/1999/xlink" x="0px" y="0px"
	 viewBox="0 0 750 500" style="enable-background:new 0 0 750 500;" xml:space="preserve">
<g id="BACKGROUND">
	<g>
		<rect style="fill:#FFFFFF;" width="750" height="500"/>
		<path style="fill:#B2E9ED;" d="M172.718,233.956c19.2,12.483,27.884,36.305,20.714,58.056c-1.558,4.726-2.209,9.606-1.838,14.557
			c2.381,31.778,45.93,54.421,97.27,50.574c9.412-0.705,18.429-2.254,26.866-4.508c22.539-6.021,45.954-7.805,69.211-5.969
			c13.91,1.098,28.383,1.151,43.2,0.04c97.558-7.31,172.976-62.19,168.451-122.577c-4.559-60.846-85.017-99.913-174.113-96.683
			c-22.819,0.827-45.301-4.856-65.58-15.351c-24.535-12.698-57.541-19.21-93.252-16.534c-71.629,5.368-127.002,45.661-123.68,89.998
			C141.405,204.727,153.576,221.51,172.718,233.956z"/>
		<ellipse style="fill:#B2E9ED;" cx="381.282" cy="408.51" rx="287.849" ry="30.737"/>
	</g>
</g>
<g id="OBJECTS">
	<g>
		<g>
			<path style="fill:none;stroke:#177D74;stroke-width:2.9462;stroke-miterlimit:10;" d="M146.517,256.748
				c0,0-5.108,12.893-2.433,35.76"/>
			<path style="fill:#1C9585;" d="M210.011,185.639c-6.912,2.771-14.198,4.357-21.645,4.342c-4.116-0.009-8.51,0.687-12.973,2.516
				c-11.663,4.78-18.264,23.094-18.264,23.094l51.255-3.454c0,0,28.537,2.564,41.763-6.23c4.665-3.102,9.51-9.731,9.51-9.731
				S234.091,175.985,210.011,185.639z"/>
			<path style="fill:#177D74;" d="M138.246,202.258c0,0-28.219-27.732-6.069-56.424c15.52-20.104,18.725-26.213,23.528-34.097
				c13.608-22.336,27.672-13.07,27.672-13.07s-15.773,24.853-16.508,46.842C165.573,184.269,138.246,202.258,138.246,202.258z"/>
			<path style="fill:#177D74;" d="M159.531,205.542c6.933-5.23,13.669-5.851,30.286,1.095c4.764,1.991,10.109,4.939,19.947,5.352
				c0,0-53.031,5.352-60.816,16.055v-0.536C148.949,218.956,152.705,210.691,159.531,205.542z"/>
			<path style="fill:#1C9585;" d="M125.434,250.099c0,0-0.649-21.731-18.488-22.056c-17.839-0.324-26.921-12.453-26.921-12.453
				s-1.992,23.387,12.325,32.238C110.189,258.857,125.434,250.099,125.434,250.099z"/>
			<g>
				<path style="fill:#1C9585;" d="M168.573,108.682c-3.074,7.667-5.971,15.396-8.689,23.188c-2.765,7.773-5.37,15.6-7.812,23.474
					c-4.956,15.725-9.287,31.638-12.871,47.707c-1.797,8.033-3.41,16.104-4.773,24.216c-1.316,8.119-2.399,16.27-3.255,24.443
					c-0.779,8.179-1.284,16.383-1.377,24.594c-0.089,8.211,0.276,16.416,1.046,24.593l-2.033,0.248
					c-1.121-8.234-1.596-16.541-1.732-24.846c-0.035-8.307,0.416-16.603,1.107-24.872c0.726-8.268,1.894-16.485,3.243-24.664
					c1.401-8.171,3.053-16.293,4.889-24.371c1.869-8.071,4.045-16.064,6.329-24.019c2.309-7.948,4.754-15.857,7.475-23.67
					c2.709-7.817,5.577-15.576,8.601-23.27C161.834,123.774,165,116.134,168.573,108.682z"/>
			</g>
			<g>
				<path style="fill:#177D74;" d="M162.976,220.188c-1.55,0.435-3.152,1.13-4.645,1.901c-1.502,0.785-2.963,1.66-4.337,2.661
					c-2.77,1.97-5.249,4.337-7.436,6.937c-4.383,5.222-7.417,11.471-9.433,17.985c-1.951,6.551-2.945,13.382-3.22,20.236
					c-0.261,6.862,0.136,13.748,0.953,20.583l-2.63,0.302c-0.732-6.961-1.039-13.983-0.674-20.996
					c0.381-7.006,1.495-14.009,3.605-20.74c2.174-6.695,5.411-13.139,10.052-18.512c2.315-2.676,4.933-5.105,7.851-7.119
					c1.447-1.023,2.985-1.916,4.569-2.716c1.602-0.792,3.206-1.478,5.007-1.956L162.976,220.188z"/>
			</g>
			<g>
				<path style="fill:#177D74;" d="M83.755,223.908c4.472,6.835,11.491,11.836,19.257,13.821c3.965,1.022,7.911,2.145,11.776,3.604
					c1.931,0.732,3.847,1.535,5.691,2.555c1.818,1.037,3.66,2.245,4.981,4.153l0.45,0.75c0.123,0.268,0.229,0.55,0.34,0.826
					c0.191,0.56,0.214,1.163,0.308,1.74c0.021,1.051,0.074,2.119,0.024,3.142c-0.036,2.072-0.168,4.116-0.303,6.162
					c-0.284,4.09-0.63,8.164-1.065,12.23c-0.428,4.066-0.899,8.125-1.382,12.182c-0.526,4.053-1.034,8.105-1.639,12.149
					l-1.461-0.185l1.263-12.174c0.439-4.056,0.865-8.112,1.248-12.171c0.377-4.059,0.809-8.113,1.098-12.169
					c0.148-2.025,0.29-4.057,0.339-6.067c0.056-1.017,0.008-1.99-0.001-2.98c-0.08-0.423-0.075-0.865-0.203-1.269l-0.226-0.596
					l-0.326-0.57c-0.974-1.498-2.598-2.684-4.283-3.682c-1.708-0.998-3.548-1.823-5.416-2.58c-3.743-1.515-7.642-2.699-11.532-3.894
					C94.707,236.542,87.745,231.052,83.755,223.908z"/>
			</g>
			<g>
				<path style="fill:#177D74;" d="M250.39,197.149c-6.499,1.964-13.058,3.731-19.644,5.393c-6.59,1.645-13.208,3.193-19.874,4.524
					c-6.668,1.315-13.364,2.531-20.12,3.396c-6.756,0.851-13.557,1.468-20.411,1.49l0.029-1.875
					c6.73,0.133,13.486-0.321,20.216-1.012c6.733-0.705,13.431-1.763,20.111-2.921c6.679-1.174,13.32-2.568,19.94-4.059
					C237.253,200.577,243.848,198.962,250.39,197.149z"/>
			</g>
			<path style="fill:#1C9585;" d="M153.534,248.23c0,0-12.613-5.834-19.424,1.707c-6.811,7.541,4.622,18.975,12.163,24.57
				c7.541,5.595,13.866,22.624,26.029,26.516c0,0,7.055-13.623,1.946-27.218c-2.113-5.624,0.273-21.794-9.778-28.002
				C160.139,243.126,153.534,248.23,153.534,248.23z"/>
			<path style="fill:#177D74;" d="M155.17,247.146c-0.781,0.465-1.335,0.861-1.541,1.014c8.713,9.369,14.022,36.345,14.944,39.956
				C168.306,286.854,164.289,258.249,155.17,247.146z"/>
		</g>
		<rect x="109.951" y="284.079" style="fill:#828291;" width="44.153" height="60.238"/>
		<rect x="115.498" y="284.079" style="fill:#695A6E;" width="12.929" height="46.048"/>
		<polyline style="fill:none;stroke:#32285F;stroke-width:2.5322;stroke-miterlimit:10;" points="109.951,405.047 109.951,316.587 
			154.103,316.587 154.103,405.047 		"/>
	</g>
	<g>
		<g>
			<path style="fill:#1C9585;" d="M607.003,256.96c-2.929-0.027-3.628-9.431-3.645-18.168c-11.109-2.964-20.744-3.897-20.744-3.897
				s-8.968,37.446,2.42,53.964c7.922-2.495,23.109-6.535,25.474-1.694c1.885,3.858-7.074,7.677-14.841,10.183
				c14.468,6.66,34.619,4.378,34.619,4.378s14.446-30.333,2.766-46.708c-3.913-5.485-10.865-9.552-18.381-12.537
				C612.563,249.713,609.757,256.985,607.003,256.96z M596.274,269.701c-0.234,1.4-2.793,2.139-5.715,1.65
				c-2.922-0.489-5.101-2.02-4.866-3.42c0.234-1.4,2.793-2.139,5.715-1.65S596.508,268.301,596.274,269.701z M625.632,261.826
				c-0.521,5.308-3.005,9.41-5.548,9.16c-2.544-0.25-4.184-4.755-3.663-10.064c0.521-5.308,3.005-9.409,5.549-9.16
				C624.513,252.012,626.152,256.517,625.632,261.826z"/>
			<g>
				<path style="fill:#177D74;" d="M585.604,238.174c3.904,3.911,7.677,7.914,11.358,12.016c3.674,4.104,7.225,8.318,10.688,12.605
					c6.883,8.603,13.327,17.603,18.686,27.317c2.666,4.86,4.999,9.928,6.816,15.232c1.794,5.292,3.034,10.918,2.896,16.681
					l-0.28,8.335c-0.057,2.751-0.105,5.502-0.109,8.256c-0.006,5.508,0.113,11.023,0.574,16.555l-8.339-0.583
					c1.228-5.44,2.113-10.896,2.875-16.359c0.379-2.732,0.715-5.466,1.041-8.201l0.442-4.105l0.207-2.05l0.158-1.97
					c0.389-5.248-0.5-10.595-1.982-15.774c-1.472-5.195-3.616-10.221-6.045-15.1c-2.434-4.883-5.217-9.606-8.221-14.185
					c-2.994-4.588-6.199-9.045-9.573-13.371c-3.356-4.341-6.889-8.548-10.555-12.634c-3.656-4.091-7.417-8.109-11.377-11.887
					L585.604,238.174z"/>
			</g>
			<path style="fill:none;stroke:#177D74;stroke-width:1.0722;stroke-miterlimit:10;" d="M583.343,281.185
				c0,0,25.925-3.652,36.725,0"/>
			<path style="fill:none;stroke:#177D74;stroke-width:1.0722;stroke-miterlimit:10;" d="M582.471,253.631
				c0,0,13.48,0.319,18.059,3.207"/>
			<path style="fill:none;stroke:#177D74;stroke-width:1.0722;stroke-miterlimit:10;" d="M630.415,264.367
				c0,0,2.124,19.603-3.093,31.695"/>
			<path style="fill:none;stroke:#177D74;stroke-width:1.0722;stroke-miterlimit:10;" d="M614.073,250.119
				c0,0,1.391,11.481-2.488,18.697"/>
		</g>
		<path style="fill:#1C9585;" d="M597.948,349.566c0,0-2.775-26.206,5.37-29.924c8.145-3.718,21.076,2.377,25.766,8.094
			c0,0-3.78,14.498-11.282,14.393C605.088,341.953,597.948,349.566,597.948,349.566z"/>
		<g>
			<path style="fill:#177D74;" d="M600.094,342.948c3.019-5.19,6.809-9.963,11.783-13.395c2.471-1.709,5.308-2.947,8.317-3.42
				c1.505-0.234,3.04-0.22,4.551-0.049c1.516,0.181,2.982,0.612,4.411,1.125c2.772,1.141,5.509,2.447,7.928,4.328
				c2.407,1.859,4.462,4.383,5.427,7.436c0.442,1.529,0.607,3.147,0.434,4.751c-0.092,0.791-0.264,1.618-0.551,2.39
				c-0.234,0.701-0.452,1.41-0.646,2.126c-0.746,2.879-1.288,5.837-0.991,9.084l-6.289-2.331c2.355-2.306,3.872-4.9,5.184-7.574
				c0.32-0.671,0.617-1.351,0.897-2.038c0.271-0.603,0.418-1.233,0.533-1.905c0.203-1.336,0.126-2.718-0.193-4.05
				c-0.722-2.65-2.414-5.049-4.634-6.867c-2.216-1.836-4.827-3.189-7.487-4.38c-1.338-0.534-2.724-0.959-4.151-1.156
				c-1.424-0.184-2.873-0.225-4.302-0.028c-2.864,0.383-5.591,1.574-7.994,3.215c-2.433,1.615-4.522,3.713-6.407,5.948
				c-1.87,2.245-3.548,4.702-4.865,7.278L600.094,342.948z"/>
		</g>
		<path style="fill:none;stroke:#177D74;stroke-width:1.0722;stroke-miterlimit:10;" d="M617.8,338.057
			c0,0-0.244-8.839,3.226-11.587"/>
		<path style="fill:none;stroke:#177D74;stroke-width:1.0722;stroke-miterlimit:10;" d="M602.786,323.107
			c0,0,10.055-2.097,16.625,3.593"/>
		<path style="fill:none;stroke:#177D74;stroke-width:1.0722;stroke-miterlimit:10;" d="M611.099,330.588
			c0,0-0.909,6.749-0.804,10.031"/>
		<path style="fill:none;stroke:#177D74;stroke-width:1.0722;stroke-miterlimit:10;" d="M613.561,328.956
			c0,0-7.673-0.194-13.031,7.021"/>
		<g>
			<path style="fill:#177D74;" d="M637.261,355.081c-0.654-0.425-1.024-0.758-1.467-1.162c-0.416-0.392-0.811-0.796-1.165-1.222
				c-0.729-0.841-1.37-1.734-1.925-2.667c-1.121-1.858-1.995-3.831-2.601-5.858c-1.265-4.048-1.707-8.23-1.747-12.353l0.04-3.092
				l0.24-3.069c0.045-0.511,0.071-1.024,0.131-1.532l0.214-1.518l0.43-3.035c0.383-2.086,0.939-4.098,1.56-6.017
				c0.603-1.943,1.256-3.847,1.9-5.75c2.6-7.598,5.151-15.166,7.051-22.905c1.955-7.717,3.178-15.613,3.319-23.527h2.145
				c-0.03,8.147-1.178,16.239-3.054,24.106c-1.82,7.887-4.3,15.589-6.792,23.213c-0.617,1.907-1.24,3.81-1.799,5.709
				c-0.589,1.907-1.071,3.782-1.389,5.647l-0.373,2.932l-0.187,1.465c-0.05,0.489-0.068,0.979-0.104,1.468l-0.19,2.936l0.004,2.929
				c0.091,3.889,0.57,7.768,1.754,11.376c0.565,1.811,1.364,3.524,2.335,5.086c0.48,0.786,1.027,1.521,1.621,2.186
				c0.291,0.344,0.603,0.652,0.922,0.944c0.294,0.275,0.7,0.585,0.887,0.707L637.261,355.081z"/>
		</g>
		<g>
			<path style="fill:#1C9585;" d="M651.213,279.934c-5.442,2.162-10.477,5.107-13.31,9.078c-8.458,11.857,2.003,33.821,2.003,33.821
				s14.591,1.653,25.068-3.17c-5.624-1.815-12.111-4.58-10.746-7.374c1.713-3.505,12.71-0.58,18.446,1.227
				c8.246-11.961,1.752-39.076,1.752-39.076s-6.977,0.675-15.021,2.822c-0.012,6.326-0.518,13.136-2.639,13.155
				C654.771,290.436,652.74,285.17,651.213,279.934z M668.059,297.167c2.116-0.354,3.968,0.181,4.138,1.195
				c0.17,1.014-1.408,2.123-3.524,2.477c-2.116,0.354-3.968-0.181-4.138-1.195C664.365,298.63,665.943,297.521,668.059,297.167z
				 M645.929,286.654c1.842-0.181,3.641,2.789,4.018,6.633c0.377,3.844-0.81,7.106-2.652,7.287
				c-1.842,0.181-3.641-2.789-4.018-6.633C642.899,290.097,644.087,286.834,645.929,286.654z"/>
			<g>
				<path style="fill:#177D74;" d="M672.928,277.454c-4.988,5.752-9.755,11.717-14.385,17.763
					c-4.598,6.071-9.006,12.297-12.907,18.813c-1.948,3.257-3.749,6.599-5.294,10.038c-0.769,1.72-1.511,3.448-2.132,5.217
					c-0.618,1.767-1.106,3.589-1.241,5.44c-0.139,1.837,0.138,3.736,1.13,5.23c1.049,1.534,2.117,3.163,3.242,4.699
					c2.234,3.11,4.55,6.172,7.164,9.068l-3.787,2.315c-1.369-3.62-3.035-7.074-4.785-10.479c-0.869-1.721-1.785-3.354-2.737-5.072
					c-0.51-0.879-0.804-1.872-0.999-2.848c-0.175-0.986-0.199-1.978-0.185-2.961c0.169-3.937,1.319-7.723,2.841-11.269
					c1.559-3.541,3.449-6.902,5.431-10.19c3.992-6.564,8.469-12.793,13.131-18.862c4.664-6.073,9.582-11.931,14.714-17.618
					L672.928,277.454z"/>
			</g>
			<path style="fill:none;stroke:#177D74;stroke-width:1.0722;stroke-miterlimit:10;" d="M673.898,307.959
				c0,0-17.131-3.252-24.951-0.608"/>
			<path style="fill:none;stroke:#177D74;stroke-width:1.0722;stroke-miterlimit:10;" d="M674.529,288.007
				c0,0-9.761,0.231-13.077,2.322"/>
			<path style="fill:none;stroke:#177D74;stroke-width:1.0722;stroke-miterlimit:10;" d="M639.813,295.781
				c0,0-1.538,14.194,2.24,22.95"/>
			<path style="fill:none;stroke:#177D74;stroke-width:1.0722;stroke-miterlimit:10;" d="M651.646,285.464
				c0,0-0.338,9.244,2.471,14.469"/>
		</g>
		<path style="fill:none;stroke:#177D74;stroke-width:2.1445;stroke-miterlimit:10;" d="M643.207,308.857
			c0,0,3.586,33.509-1.094,46.021"/>
		<rect x="615.727" y="353.375" style="fill:#F0E1D3;" width="40.998" height="13.512"/>
		<path style="fill:#D8C5B6;" d="M628.612,402.193h15.23c10.337-5.878,17.837-23.402,17.837-44.109h-50.904
			C610.774,378.792,618.275,396.316,628.612,402.193z"/>
		<path style="fill:#E2D0C5;" d="M625.891,393.182h5.296c4.833-4.677,8.339-18.621,8.339-35.097h-23.799
			C615.727,374.561,621.058,388.505,625.891,393.182z"/>
	</g>
	<g>
		<g>
			<path style="fill:#FF9669;" d="M224.436,171.104c0,0,16.655,15.131,34.724,11.723c9.545-5.214,35.357-16.921,35.357-16.921
				l2.8,4.678c0,0-25.833,24.665-36.545,27.126c-10.712,2.461-34.59-0.503-46.768-9.869
				C201.828,178.475,219.478,167.68,224.436,171.104z"/>
			<path style="fill:#FFFFFF;" d="M223.261,169.468c0,0,10.349,6.263,21.013,10.325c-1.34,4.911-2.837,13.4-9.795,18.701
				c-6.571-1.543-14.926-5.083-20.686-8.71c-4.897-3.083-13.537-12.086-12.218-15.511
				C205.88,163.093,220.097,167.283,223.261,169.468z"/>
			<path style="fill:#FF9669;" d="M293.486,167.549c0,0,2.206-6.704,5.469-8.525c3.263-1.821,4.898-1.732,4.765-1.258
				c-0.251,0.895-1.806,1.213-2.794,2.044c-0.582,0.489-0.834,0.988-0.776,1.088c0.157,0.269,4.351-1.255,4.724-0.484
				c0.544,1.124-2.281,2.181-1.631,2.521c0.65,0.341,2.834-0.835,3.224,0.263c0.422,1.19-2.079,1.644-2.045,2.165
				c0.035,0.521,2.401-0.38,2.518,0.886c0.128,1.379-2.187,1.259-2.246,2.073c-0.024,0.329,1.228-0.232,1.348,1.051
				c0.12,1.283-2.802,1.122-3.256,1.117c-0.454-0.005-5.828,2.061-8.788-2.068L293.486,167.549z"/>
		</g>
		<rect x="321.885" y="125.608" style="fill:#828291;" width="7.491" height="259.917"/>
		<g>
			<path style="fill:#FFFFFF;" d="M374.105,285.792h-96.949c-1.754,0-3.176-1.422-3.176-3.176V134.358
				c0-1.754,1.422-3.176,3.176-3.176h96.949c1.754,0,3.176,1.422,3.176,3.176v148.258
				C377.281,284.37,375.859,285.792,374.105,285.792z"/>
			<g>
				<g>
					<g>
						<rect x="283.876" y="210.764" style="fill:#B2E9ED;" width="1.375" height="68.724"/>
					</g>
					<g>
						<rect x="295.633" y="210.764" style="fill:#B2E9ED;" width="1.375" height="68.724"/>
					</g>
					<g>
						<rect x="307.39" y="210.764" style="fill:#B2E9ED;" width="1.375" height="68.724"/>
					</g>
					<g>
						<rect x="319.147" y="210.764" style="fill:#B2E9ED;" width="1.375" height="68.724"/>
					</g>
					<g>
						<rect x="330.904" y="210.764" style="fill:#B2E9ED;" width="1.375" height="68.724"/>
					</g>
					<g>
						<rect x="342.661" y="210.764" style="fill:#B2E9ED;" width="1.375" height="68.724"/>
					</g>
					<g>
						<rect x="354.418" y="210.764" style="fill:#B2E9ED;" width="1.375" height="68.724"/>
					</g>
					<g>
						<rect x="366.175" y="210.764" style="fill:#B2E9ED;" width="1.375" height="68.724"/>
					</g>
				</g>
				<g>
					<g>
						<polygon style="fill:#FA503C;" points="285.06,275.389 284.066,274.341 299.795,256.175 314.813,266.991 333.327,244.891 
							338.038,249.936 364.231,220.649 365.21,221.716 338.059,252.075 333.381,247.064 315.034,268.965 300,258.136 						"/>
					</g>
					<g>
						<polygon style="fill:#FA503C;" points="366.467,219.255 362.975,220.288 365.531,223.11 						"/>
					</g>
				</g>
				<g>
					<polygon style="fill:#0073AA;" points="365.993,274.237 327.9,267.448 302.467,245.964 284.46,248.775 284.268,247.272 
						302.845,244.371 328.461,266.008 366.213,272.738 					"/>
				</g>
				<g>
					<polygon style="fill:#0073AA;" points="368.478,273.966 365.629,271.511 365.127,275.463 					"/>
				</g>
			</g>
			<rect x="283.876" y="145.736" style="fill:#177D74;" width="14.202" height="54.796"/>
			<rect x="301.808" y="167.773" style="fill:#177D74;" width="14.202" height="32.758"/>
			<rect x="319.741" y="180.923" style="fill:#177D74;" width="14.202" height="19.609"/>
			<rect x="337.673" y="176.822" style="fill:#177D74;" width="14.202" height="23.71"/>
			<rect x="355.606" y="168.308" style="fill:#177D74;" width="14.202" height="32.224"/>
		</g>
		<path style="fill:none;stroke:#32285F;stroke-width:4.5558;stroke-miterlimit:10;" d="M306.098,398.548v-5.029
			c0-3.58,2.902-6.483,6.482-6.483h26.1c3.58,0,6.483,2.902,6.483,6.483v5.029"/>
	</g>
	<g>
		<g>
			<polyline style="fill:none;stroke:#32285F;stroke-width:5.5116;stroke-miterlimit:10;" points="430.111,393.039 399.58,377.773 
				369.048,393.039 			"/>
			
				<line style="fill:none;stroke:#32285F;stroke-width:5.5116;stroke-miterlimit:10;" x1="399.58" y1="377.773" x2="399.58" y2="328.102"/>
			<path style="fill:#DB372A;" d="M369.746,331.482h76.692l11.725-100.092c0.945-8.067-5.359-15.151-13.48-15.151h-37.939
				c-6.338,0-11.832,4.387-13.236,10.568L369.746,331.482z"/>
			
				<rect x="380.016" y="331.482" transform="matrix(-1 -1.224647e-16 1.224647e-16 -1 797.9029 669.6198)" style="fill:#828291;" width="37.87" height="6.656"/>
			<g>
				<circle style="fill:#32285F;" cx="425.531" cy="392.93" r="8.222"/>
				<circle style="fill:#828291;" cx="425.531" cy="392.93" r="4.03"/>
			</g>
			<g>
				<circle style="fill:#32285F;" cx="373.946" cy="392.93" r="8.222"/>
				<circle style="fill:#828291;" cx="373.946" cy="392.93" r="4.03"/>
			</g>
			<path style="fill:#E69632;" d="M354.783,316.587h78.403c7.984,0,14.181,6.965,13.252,14.895l0,0H342.2v-2.312
				C342.2,322.22,347.833,316.587,354.783,316.587z"/>
		</g>
		<g>
			<g>
				<g>
					<g>
						<g>
							<path style="fill:#32285F;" d="M357.576,401.553h-17.869c-1.305,0-2.2-1.345-1.659-2.533c0.643-1.412,1.684-3.02,3.256-3.699
								c3.082-1.332,10.892-4.011,10.892-4.011l6.586,0.174c1.638,1.259,1.78,4.325,1.143,8.575
								C359.794,400.927,358.453,401.553,357.576,401.553z"/>
							<path style="fill:#FFFFFF;" d="M337.51,402.097h22.199c0.563,0,1.019-0.456,1.019-1.019l0,0c0-0.563-0.456-1.019-1.019-1.019
								H337.51c-0.563,0-1.019,0.456-1.019,1.019l0,0C336.491,401.641,336.947,402.097,337.51,402.097z"/>
						</g>
						<path style="fill:#FF9669;" d="M353.464,392.927c1.423,0.873,2.847,0.873,4.27,0c0.368-0.226,0.6-0.625,0.6-1.056v-4.833
							h-5.47v4.833C352.864,392.302,353.096,392.701,353.464,392.927z"/>
					</g>
					<g>
						<g>
							<polygon style="fill:#E69632;" points="354.035,400.111 350.182,394.409 350.879,393.938 355.052,400.111 							"/>
						</g>
						<g>
							<polygon style="fill:#E69632;" points="350.869,400.111 347.848,395.641 348.546,395.169 351.886,400.111 							"/>
						</g>
						<g>
							<polygon style="fill:#E69632;" points="347.703,400.111 345.515,396.873 346.212,396.401 348.719,400.111 							"/>
						</g>
					</g>
					<g>
						<path style="fill:#50374B;" d="M346.412,387.386c-6.307-28.354-8.898-67.058-8.898-67.058
							c5.238-2.583,19.073,7.586,19.073,7.586c8.329,10.399,4.277,34.61,3.503,59.472
							C357.015,388.328,349.851,388.228,346.412,387.386z"/>
					</g>
				</g>
				<g>
					<path style="fill:#50374B;" d="M357.398,330.127c0,0,34.779-9.72,35.666-21.638c0.887-11.918-0.681-16.927-0.681-16.927
						l-16.661,0.67c-17.132,0.689-32.353,11.56-38.078,27.722c-0.044,0.124-0.088,0.249-0.131,0.374L357.398,330.127z"/>
					<path style="fill:none;stroke:#0F1446;stroke-width:0.4667;stroke-miterlimit:10;" d="M388.091,316.243"/>
					<path style="fill:none;stroke:#0F1446;stroke-width:0.4667;stroke-miterlimit:10;" d="M381.166,295.365"/>
					<path style="fill:none;stroke:#0F1446;stroke-width:0.4667;stroke-miterlimit:10;" d="M387.488,367.118"/>
					<path style="fill:none;stroke:#0F1446;stroke-width:0.4667;stroke-miterlimit:10;" d="M386.911,315.232"/>
				</g>
			</g>
			<g>
				<path style="fill:#1C9585;" d="M364.35,212.754c-6.708,11.298-9.966,33.09-24.203,42.823
					c-10.596,2.455-37.657,10.881-37.657,10.881l1.496,7.857c0,0,34.642-2.491,44.855-6.551
					c16.428-6.531,30.52-30.812,33.383-45.905C385.089,206.764,367.426,207.573,364.35,212.754z"/>
			</g>
			<g>
				<g>
					<g>
						<g>
							<path style="fill:#32285F;" d="M384.602,401.553h-17.869c-1.305,0-2.2-1.345-1.659-2.533c0.643-1.412,1.684-3.02,3.256-3.699
								c3.082-1.332,10.892-4.011,10.892-4.011l6.586,0.174c1.638,1.259,1.78,4.325,1.143,8.575
								C386.821,400.927,385.48,401.553,384.602,401.553z"/>
							<path style="fill:#FFFFFF;" d="M364.536,402.097h22.199c0.563,0,1.019-0.456,1.019-1.019l0,0
								c0-0.563-0.456-1.019-1.019-1.019h-22.199c-0.563,0-1.019,0.456-1.019,1.019l0,0
								C363.517,401.641,363.973,402.097,364.536,402.097z"/>
						</g>
						<path style="fill:#FF9669;" d="M380.491,392.927c1.423,0.873,2.847,0.873,4.27,0c0.368-0.226,0.6-0.625,0.6-1.056v-4.833
							h-5.47v4.833C379.891,392.302,380.123,392.701,380.491,392.927z"/>
					</g>
					<g>
						<g>
							<polygon style="fill:#E69632;" points="381.062,400.111 377.208,394.409 377.906,393.938 382.078,400.111 							"/>
						</g>
						<g>
							<polygon style="fill:#E69632;" points="377.896,400.111 374.875,395.641 375.572,395.169 378.912,400.111 							"/>
						</g>
						<g>
							<polygon style="fill:#E69632;" points="374.729,400.111 372.541,396.873 373.238,396.401 375.746,400.111 							"/>
						</g>
					</g>
					<g>
						<path style="fill:#695A6E;" d="M373.438,387.386c-6.307-28.354-8.898-67.058-8.898-67.058
							c5.238-2.583,19.073,7.586,19.073,7.586c8.329,10.399,4.277,34.61,3.503,59.472
							C384.041,388.328,376.877,388.228,373.438,387.386z"/>
					</g>
				</g>
				<g>
					<path style="fill:#695A6E;" d="M385.589,330.127c0,0,30.562-3.192,34.502-21.638c2.496-11.688-0.68-16.927-0.68-16.927
						l-33.274,1.338c-9.666,6.245-17.259,14.925-21.595,27.428L385.589,330.127z"/>
					<path style="fill:#50374B;" d="M410.076,300.83c0,0-0.693,5.516,6.075,8.903L410.076,300.83z"/>
					<path style="fill:none;stroke:#0F1446;stroke-width:0.4667;stroke-miterlimit:10;" d="M413.938,315.232"/>
				</g>
			</g>
			<path style="opacity:0.2;" d="M420.363,293.55c0,0-18.12,7.998-34.397,7.279c-16.277-0.718-13.407-10.67-13.407-10.67
				S413.419,290.319,420.363,293.55z"/>
			<path style="fill:#50374B;" d="M364.128,214.578c0.168-2.789,2.39-5.019,5.179-5.193c10.869-0.68,39.838-1.54,45.402,2.892
				c5.518,4.395,10.064,81.273,10.064,81.273s-32.411,5.197-51.922-1.988C372.851,291.562,362.428,242.88,364.128,214.578z"/>
			<g>
				<g>
					<g>
						<path style="fill:#FF9669;" d="M386.624,215.438L386.624,215.438c3.927-0.294,6.871-3.716,6.577-7.642l-0.785-10.47
							l-14.219,1.066l0.785,10.47C379.276,212.788,382.698,215.732,386.624,215.438z"/>
						<path style="fill:#FF640A;" d="M379.02,209.371c6.041,0.04,10.115-2.752,13.847-6.035l-0.45-6.01l-14.219,1.066
							L379.02,209.371z"/>
						<path style="fill:#FF9669;" d="M378.978,206.038l3.833-0.287c1.285-0.096,2.514-0.544,3.526-1.286l3.276-2.401
							c4.423-3.242,6.839-8.255,6.454-13.393l-1.209-16.132l-27.89,2.09l1.564,20.871c0.041,0.542,0.198,1.065,0.467,1.547
							C370.31,199.396,374.583,206.368,378.978,206.038z"/>
						<g>
							<path style="fill:#1E1632;" d="M382.514,187.788c0.136,1.375,0.818,2.434,1.525,2.364c0.706-0.07,1.168-1.241,1.032-2.616
								c-0.136-1.375-0.819-2.433-1.525-2.363C382.84,185.242,382.378,186.413,382.514,187.788z"/>
							<path style="fill:#FFFFFF;" d="M382.8,188.299c0.04,0.529,0.301,0.941,0.583,0.92c0.283-0.021,0.479-0.467,0.44-0.997
								c-0.04-0.529-0.301-0.941-0.583-0.92C382.958,187.324,382.761,187.77,382.8,188.299z"/>
						</g>
						<g>
							<path style="fill:#1E1632;" d="M371.47,188.616c0.136,1.375,0.818,2.434,1.524,2.364c0.706-0.07,1.168-1.241,1.033-2.616
								c-0.136-1.375-0.819-2.433-1.525-2.364C371.796,186.07,371.334,187.241,371.47,188.616z"/>
							<path style="fill:#FFFFFF;" d="M371.767,189.126c0.04,0.529,0.301,0.941,0.583,0.92s0.479-0.467,0.44-0.997
								c-0.04-0.529-0.301-0.941-0.583-0.92C371.924,188.15,371.727,188.597,371.767,189.126z"/>
						</g>
						<path style="fill:#FF640A;" d="M375.864,190.958l-0.001-0.016c0,0,1.776-1.714,1.375-4.012c0,0,1.48,2.974-1.354,4.291
							c-0.025,0.146-0.034,0.297-0.022,0.451c0.081,1.076,1.019,1.884,2.095,1.803c0.427-0.032,0.809-0.203,1.113-0.46
							c-0.266,0.677-0.894,1.181-1.668,1.239c-1.076,0.081-2.014-0.727-2.095-1.803
							C375.263,191.872,375.489,191.344,375.864,190.958z"/>
						<path style="fill:#FF640A;" d="M369.416,193.452c0.071,0.947,1.094,1.641,2.285,1.552c1.191-0.089,2.099-0.929,2.028-1.875
							c-0.071-0.947-1.094-1.641-2.285-1.552C370.254,191.666,369.345,192.506,369.416,193.452z"/>
						<path style="fill:#FF640A;" d="M384.625,192.312c0.071,0.947,1.094,1.641,2.285,1.552s2.099-0.929,2.029-1.875
							c-0.071-0.946-1.094-1.641-2.285-1.552C385.462,190.526,384.554,191.366,384.625,192.312z"/>
						<path style="fill:#69280F;" d="M382.127,184.752l5.178-0.388l-0.087-1.165l-7.502-0.522l0,0
							C379.809,183.916,380.888,184.845,382.127,184.752z"/>
						<path style="fill:#69280F;" d="M369.13,185.726l5.178-0.388l-0.087-1.165l-7.502-0.522l0,0
							C366.811,184.89,367.891,185.819,369.13,185.726z"/>
						<path style="fill:#FFFFFF;" d="M376.149,196.085c0.132,1.762,1.667,3.083,3.429,2.951c1.762-0.132,3.083-1.667,2.951-3.429
							L376.149,196.085z"/>
						<path style="fill:#69280F;" d="M394.604,195.837l1.357-0.102c2.202-0.165,3.853-2.083,3.688-4.285l-1.615-21.56
							c-0.221-2.951-2.793-5.164-5.744-4.943l0,0L394.604,195.837z"/>
						<path style="fill:#FF9669;" d="M392.579,187.567c0.196,2.619,2.245,4.601,4.577,4.427c2.331-0.175,4.062-2.44,3.866-5.059
							c-0.196-2.62-2.245-4.601-4.577-4.427C394.114,182.682,392.383,184.947,392.579,187.567z"/>
						<path style="fill:#FF640A;" d="M395.236,187.368c0.073,0.971,0.833,1.706,1.697,1.641c-0.644-1.19-1.009-2.256-0.264-3.518
							C395.805,185.556,395.163,186.396,395.236,187.368z"/>
						
							<rect x="390.677" y="169.112" transform="matrix(-0.9972 0.0747 -0.0747 -0.9972 796.9554 332.2043)" style="fill:#69280F;" width="3.17" height="23.802"/>
					</g>
				</g>
				<path style="fill:#69280F;" d="M390.809,175.872c0,0-16.638,5.32-20.024,4.914c-3.386-0.405-0.672-1.621-0.672-1.621
					s-9.952,1.39-10.464-5.184c-0.512-6.574,4.017-9.668,9.348-9.701c5.331-0.032,8.146,1.8,8.146,1.8s-1.743-3.749,1.073-3.409
					c2.816,0.34,12.272,1.254,15.623,2.797C397.19,167.013,390.809,175.872,390.809,175.872z"/>
			</g>
			<g>
				<path style="fill:#FF9669;" d="M345.602,270.701c0,0-5.312-3.622-8.956-2.796c-3.644,0.827-5.611,2.098-5.195,2.362
					c0.785,0.498,2.163-0.19,3.445-0.348c1.601-0.198,1.63,0.891,1.653,1.004c0.063,0.305-7.732,2.569-7.494,3.391
					c0.347,1.199,6.462-1.21,6.206-0.522c-0.256,0.688-7.101,2.107-6.657,3.184c0.482,1.167,7.081-1.001,7.404-0.59
					c0.322,0.411-6.386,1.305-5.626,2.325c0.827,1.111,6.544-0.88,7.133-0.314c0.238,0.229-5.601,0.586-4.833,1.62
					c0.768,1.034,7.637-0.606,7.971-0.913c0.334-0.307,5.712-2.363,5.153-7.413L345.602,270.701z"/>
				<path style="fill:#1C9585;" d="M403.819,214.415c-6.105,10.9-7.107,32.475-22.823,42.021
					c-10.584,2.504-36.801,13.138-36.801,13.138l1.651,8.458c0,0,34.401,0,44.706-7.367c8.941-6.392,29.332-26.285,31.979-41.418
					C426.242,208.034,406.764,209.158,403.819,214.415z"/>
			</g>
		</g>
		<g>
			<polygon style="fill:#FFFFFF;" points="387.783,279.225 377.292,279.225 375.774,257.465 389.302,257.465 			"/>
			<rect x="374.368" y="257.093" style="fill:#1E1632;" width="16.34" height="4.856"/>
		</g>
		<g>
			<path style="fill:#FF9669;" d="M294.353,261.015c-0.223,0.8,1.018,1.844,2.772,2.334c1.754,0.489,3.357,0.238,3.58-0.562
				c0.223-0.799-1.018-1.844-2.772-2.334C296.178,259.964,294.576,260.216,294.353,261.015z"/>
			<path style="fill:#B2E9ED;" d="M304.681,276.976h19.945c-5.937-9.879-9.7-19.394-11.08-30.149h-19.945
				C294.649,257.631,298.088,267.753,304.681,276.976z"/>
			<path style="fill:#FF9669;" d="M296.134,265.659c0,0.726,1.301,1.315,2.906,1.315c1.605,0,2.907-0.589,2.907-1.315
				c0-0.726-1.301-1.315-2.907-1.315C297.435,264.344,296.134,264.933,296.134,265.659z"/>
			<ellipse style="fill:#FF9669;" cx="299.738" cy="268.096" rx="2.906" ry="1.315"/>
			<path style="fill:#FF9669;" d="M297.528,270.534c0,0.726,1.301,1.315,2.907,1.315c1.605,0,2.906-0.589,2.906-1.315
				c0-0.726-1.301-1.315-2.906-1.315C298.83,269.219,297.528,269.807,297.528,270.534z"/>
			<ellipse style="fill:#FF9669;" cx="301.53" cy="272.761" rx="2.906" ry="1.315"/>
		</g>
	</g>
	<g>
		<g>
			<polyline style="fill:none;stroke:#32285F;stroke-width:5.5116;stroke-miterlimit:10;" points="578.447,392.81 547.916,377.544 
				517.385,392.81 			"/>
			
				<line style="fill:none;stroke:#32285F;stroke-width:5.5116;stroke-miterlimit:10;" x1="547.916" y1="377.544" x2="547.916" y2="327.873"/>
			<path style="fill:#FA503C;" d="M518.082,331.253h76.692l11.724-100.092c0.945-8.066-5.359-15.151-13.48-15.151H555.08
				c-6.338,0-11.833,4.387-13.236,10.568L518.082,331.253z"/>
			
				<rect x="528.353" y="331.253" transform="matrix(-1 -1.224647e-16 1.224647e-16 -1 1094.5753 669.1616)" style="fill:#828291;" width="37.87" height="6.656"/>
			<g>
				
					<ellipse transform="matrix(0.9731 -0.2306 0.2306 0.9731 -75.0815 142.8945)" style="fill:#32285F;" cx="573.867" cy="392.701" rx="8.222" ry="8.222"/>
				<circle style="fill:#828291;" cx="573.867" cy="392.701" r="4.03"/>
			</g>
			<g>
				
					<ellipse transform="matrix(0.7071 -0.7071 0.7071 0.7071 -124.7089 484.3285)" style="fill:#32285F;" cx="522.282" cy="392.701" rx="8.222" ry="8.222"/>
				<circle style="fill:#828291;" cx="522.282" cy="392.701" r="4.03"/>
			</g>
			<path style="fill:#DB372A;" d="M503.119,316.358h78.403c7.984,0,14.181,6.965,13.252,14.895l0,0H490.536v-2.312
				C490.536,321.991,496.17,316.358,503.119,316.358z"/>
		</g>
		<path style="fill:#1E1632;" d="M580.602,194.26c0,6.35-5.148,11.498-11.498,11.498c-6.35,0-18.934-6.495-18.934-12.845
			c0-6.35,12.583-10.151,18.934-10.151C575.455,182.762,580.602,187.91,580.602,194.26z"/>
		<circle style="fill:#1E1632;" cx="536.463" cy="183.718" r="21.538"/>
		<g>
			<g>
				<g>
					<g>
						<g>
							<path style="fill:#E69632;" d="M509.024,401.553h-17.869c-1.305,0-2.2-1.345-1.659-2.533c0.643-1.412,1.684-3.02,3.256-3.699
								c3.082-1.332,10.892-4.011,10.892-4.011l6.586,0.174c1.638,1.259,1.78,4.325,1.143,8.575
								C511.243,400.927,509.902,401.553,509.024,401.553z"/>
							<path style="fill:#FFFFFF;" d="M488.958,402.097h22.199c0.563,0,1.019-0.456,1.019-1.019l0,0
								c0-0.563-0.456-1.019-1.019-1.019h-22.199c-0.563,0-1.019,0.456-1.019,1.019l0,0
								C487.939,401.641,488.396,402.097,488.958,402.097z"/>
						</g>
						<path style="fill:#FFFFFF;" d="M504.913,392.927c1.423,0.873,2.847,0.873,4.27,0c0.368-0.226,0.6-0.625,0.6-1.056v-4.833
							h-5.47v4.833C504.313,392.302,504.545,392.701,504.913,392.927z"/>
					</g>
				</g>
				<g>
					<path style="fill:#50374B;" d="M510.011,330.127c0,0,33.615-9.72,34.502-21.638c0.887-11.918-0.68-16.927-0.68-16.927
						l-16.661,0.67c-17.132,0.689-32.354,11.56-38.078,27.722c-0.044,0.124-0.088,0.249-0.131,0.374L510.011,330.127z"/>
					<path style="fill:none;stroke:#0F1446;stroke-width:0.4667;stroke-miterlimit:10;" d="M539.54,316.243"/>
					<path style="fill:none;stroke:#0F1446;stroke-width:0.4667;stroke-miterlimit:10;" d="M532.615,295.365"/>
					<path style="fill:none;stroke:#0F1446;stroke-width:0.4667;stroke-miterlimit:10;" d="M538.936,367.118"/>
					<path style="fill:none;stroke:#0F1446;stroke-width:0.4667;stroke-miterlimit:10;" d="M538.36,315.232"/>
				</g>
			</g>
			<g>
				<path style="fill:#D8C5B6;" d="M515.799,212.754c-6.708,11.298-9.966,33.09-24.203,42.823
					c-10.596,2.455-37.657,10.881-37.657,10.881l1.496,7.857c0,0,34.642-2.491,44.855-6.551
					c16.428-6.531,30.52-30.812,33.383-45.905C536.537,206.764,518.875,207.573,515.799,212.754z"/>
				<path style="fill:#FF9669;" d="M455.802,268.03c0,0-6.106-3.539-9.754-2.729c-3.648,0.81-4.81,1.964-4.395,2.23
					c0.783,0.501,2.156-0.296,3.446-0.332c0.76-0.022,1.28,0.183,1.303,0.296c0.061,0.305-4.084,1.957-3.85,2.781
					c0.341,1.201,3.154,0.111,2.895,0.798c-0.259,0.687-2.672,1.261-2.232,2.34c0.476,1.169,2.646-0.155,2.967,0.257
					c0.321,0.412-2.046,1.313-1.291,2.337c0.822,1.115,2.471-0.515,3.056,0.054c0.237,0.23-1.071,0.643-0.307,1.681
					c0.763,1.038,2.839-1.026,3.174-1.331c0.336-0.305,5.723-2.337,5.187-7.389L455.802,268.03z"/>
			</g>
			<g>
				<g>
					<g>
						<g>
							<path style="fill:#E69632;" d="M536.051,401.553h-17.869c-1.305,0-2.2-1.345-1.659-2.533c0.643-1.412,1.684-3.02,3.256-3.699
								c3.082-1.332,10.892-4.011,10.892-4.011l6.586,0.174c1.638,1.259,1.78,4.325,1.143,8.575
								C538.269,400.927,536.929,401.553,536.051,401.553z"/>
							<path style="fill:#FFFFFF;" d="M515.985,402.097h22.199c0.563,0,1.019-0.456,1.019-1.019l0,0
								c0-0.563-0.456-1.019-1.019-1.019h-22.199c-0.563,0-1.019,0.456-1.019,1.019l0,0
								C514.966,401.641,515.422,402.097,515.985,402.097z"/>
						</g>
						<path style="fill:#FFFFFF;" d="M531.939,392.927c1.423,0.873,2.847,0.873,4.27,0c0.368-0.226,0.6-0.625,0.6-1.056v-4.833
							h-5.47v4.833C531.339,392.302,531.571,392.701,531.939,392.927z"/>
					</g>
					<g>
						<g>
							<polygon style="fill:#FFFFFF;" points="532.51,400.111 528.657,394.409 529.354,393.938 533.527,400.111 							"/>
						</g>
						<g>
							<polygon style="fill:#FFFFFF;" points="529.344,400.111 526.324,395.641 527.021,395.169 530.361,400.111 							"/>
						</g>
						<g>
							<polygon style="fill:#FFFFFF;" points="526.178,400.111 523.99,396.873 524.687,396.401 527.194,400.111 							"/>
						</g>
					</g>
					<g>
						<path style="fill:#FF9669;" d="M510.221,378.543c1.469-21.788,5.225-41.377-2.186-50.629c0,0-13.834-10.169-19.072-7.586
							c0,0,6.555,31.318,12.419,58.215l4.849,0.321L510.221,378.543z"/>
					</g>
					<g>
						<path style="fill:#FF9669;" d="M535.062,327.914c0,0-13.834-10.169-19.073-7.586c0,0,6.685,31.919,12.556,58.842
							c0.717,0.102,1.343,0.086,1.96,0.321h6.768C538.774,357.72,542.393,337.066,535.062,327.914z"/>
					</g>
				</g>
				<g>
					<path style="fill:#695A6E;" d="M537.037,330.127c0,0,35.316-10.975,36.203-22.894c0.887-11.918,0.627-15.671,0.627-15.671
						l-36.283,1.338c-9.666,6.245-17.259,14.925-21.595,27.428L537.037,330.127z"/>
					<path style="fill:#0F1446;" d="M561.525,300.83c0,0-0.693,5.516,6.075,8.903L561.525,300.83z"/>
					<path style="fill:none;stroke:#50374B;stroke-width:0.4667;stroke-miterlimit:10;" d="M553.63,299.846
						c0,9.887,17.221,6.681,20.273-5.966"/>
					<path style="fill:none;stroke:#0F1446;stroke-width:0.4667;stroke-miterlimit:10;" d="M565.387,315.232"/>
				</g>
			</g>
			<path style="opacity:0.2;" d="M571.811,293.55c0,0-18.12,7.998-34.397,7.279c-16.277-0.718-13.407-10.67-13.407-10.67
				S564.867,290.319,571.811,293.55z"/>
			<path style="fill:#F0E1D3;" d="M515.577,214.578c-0.39-2.767,2.391-5.019,5.179-5.193c10.869-0.68,39.838-1.54,45.402,2.892
				c5.518,4.395,10.064,81.273,10.064,81.273s-32.411,5.197-51.922-1.988c0,0-0.024-19.494-1.983-42.903
				c-0.18-2.155-1.463-3.994-3.278-5.168c-2.256-1.459-3.848-4.154-3.185-7.538C517.013,230.039,516.294,219.677,515.577,214.578z"
				/>
			<path style="fill:#D8C5B6;" d="M523.728,248.003l23.18,0.109C546.908,248.112,534.094,243.045,523.728,248.003z"/>
			<g>
				<g>
					<g>
						<path style="fill:#FF9669;" d="M538.073,215.438L538.073,215.438c3.927-0.294,6.871-3.716,6.577-7.642l-0.785-10.47
							l-14.219,1.066l0.784,10.47C530.725,212.788,534.146,215.732,538.073,215.438z"/>
						<path style="fill:#FF640A;" d="M530.469,209.371c6.041,0.04,10.115-2.752,13.847-6.035l-0.45-6.01l-14.219,1.066
							L530.469,209.371z"/>
						<path style="fill:#FF9669;" d="M530.427,206.038l3.833-0.287c1.285-0.096,2.513-0.544,3.526-1.286l3.276-2.401
							c4.423-3.242,6.839-8.255,6.454-13.393l-1.209-22.164l-27.89,2.09l1.564,26.903c0.041,0.542,0.198,1.065,0.467,1.547
							C521.758,199.396,526.032,206.368,530.427,206.038z"/>
						<g>
							<path style="fill:none;stroke:#1E1632;stroke-width:0.7593;stroke-miterlimit:10;" d="M536.52,189.054
								c-0.136-1.375-0.818-2.433-1.525-2.363c-0.706,0.07-1.168,1.241-1.032,2.616"/>
						</g>
						<g>
							<path style="fill:none;stroke:#1E1632;stroke-width:0.7593;stroke-miterlimit:10;" d="M525.475,189.882
								c-0.136-1.375-0.818-2.433-1.524-2.364c-0.706,0.07-1.168,1.241-1.032,2.616"/>
						</g>
						<path style="fill:#FF640A;" d="M527.313,190.958l-0.001-0.016c0,0,1.776-1.714,1.375-4.012c0,0,1.48,2.974-1.354,4.291
							c-0.025,0.146-0.034,0.297-0.023,0.451c0.081,1.076,1.019,1.884,2.095,1.803c0.427-0.032,0.809-0.203,1.113-0.46
							c-0.266,0.677-0.894,1.181-1.668,1.239c-1.076,0.081-2.014-0.727-2.095-1.803
							C526.711,191.872,526.937,191.344,527.313,190.958z"/>
						<path style="fill:#FF640A;" d="M520.865,193.452c0.071,0.947,1.094,1.641,2.285,1.552c1.191-0.089,2.099-0.929,2.029-1.875
							c-0.071-0.947-1.094-1.641-2.285-1.552C521.702,191.666,520.794,192.506,520.865,193.452z"/>
						<path style="fill:#FF640A;" d="M536.073,192.312c0.071,0.947,1.094,1.641,2.285,1.552c1.191-0.089,2.099-0.929,2.029-1.875
							c-0.071-0.946-1.094-1.641-2.285-1.552C536.911,190.526,536.003,191.366,536.073,192.312z"/>
						<path style="fill:#1E1632;" d="M533.576,184.752l5.178-0.388l-0.087-1.165l-7.502-0.522l0,0
							C531.257,183.916,532.337,184.845,533.576,184.752z"/>
						<path style="fill:#1E1632;" d="M520.578,185.726l5.178-0.388l-0.087-1.165l-7.502-0.522l0,0
							C518.26,184.89,519.34,185.819,520.578,185.726z"/>
						<path style="fill:#FFFFFF;" d="M527.598,196.085c0.132,1.762,1.667,3.083,3.429,2.951c1.762-0.132,3.083-1.667,2.951-3.429
							L527.598,196.085z"/>
						<path style="fill:#FF9669;" d="M544.028,187.567c0.196,2.619,2.245,4.601,4.577,4.427c2.331-0.175,4.062-2.44,3.866-5.059
							c-0.196-2.62-2.245-4.601-4.577-4.427C545.563,182.682,543.832,184.947,544.028,187.567z"/>
						<path style="fill:#FF640A;" d="M546.684,187.368c0.073,0.971,0.833,1.706,1.697,1.641c-0.644-1.19-1.009-2.256-0.263-3.518
							C547.253,185.556,546.611,186.396,546.684,187.368z"/>
					</g>
				</g>
			</g>
		</g>
		<path style="fill:#1E1632;" d="M541.98,165.478c0,0-7.993,16.441-26.591,16.441c0,0-2.561-10.97,1.927-14.074
			C527.598,160.733,541.98,165.478,541.98,165.478z"/>
		<path style="fill:#1E1632;" d="M541.207,167.079c0,0-10.071,11.466-8.057,13.015c2.014,1.549,8.057-11.156,8.057-11.156
			s-3.359,9.762-1.447,10.226C541.672,179.629,542.756,170.952,541.207,167.079z"/>
		<path style="fill:#1E1632;" d="M547.894,182.507c-0.876-0.11-1.912,0.557-3.045,1.692c-0.886,0.888-2.386,0.213-2.371-1.041
			c0.07-5.944-0.775-11.421-2.101-16.651h7.153L547.894,182.507z"/>
		<g>
			<path style="fill:#41378C;" d="M439.663,247.69l53.608,31.935l2.891-1.592l-7.08-30.171c-0.704-3.159-3.507-5.406-6.743-5.406
				h-37.563c-1.923,0-3.642,1.202-4.301,3.009L439.663,247.69z"/>
			<path style="fill:#1E1632;" d="M446.966,279.624h46.305l-7.31-29.757c-0.57-2.556-2.837-4.374-5.456-4.374H442.71
				c-2.067,0-3.602,1.915-3.152,3.932L446.966,279.624z"/>
		</g>
		<g>
			<path style="fill:#D8C5B6;" d="M555.268,214.415c-6.105,10.9-5.988,31.078-18.805,41.163
				c-9.096,2.152-30.737,10.502-36.645,12.808c-0.909,0.355-1.48,1.247-1.432,2.222l0.206,4.177
				c0.059,1.198,1.034,2.141,2.233,2.158c7.463,0.103,32.452-0.041,41.175-6.277c8.941-6.392,29.332-26.285,31.979-41.418
				C577.691,208.034,558.212,209.158,555.268,214.415z"/>
			<path style="fill:#FF9669;" d="M501.171,271.255c-0.828-2.267-5.169-4.806-8.905-4.826c-3.736-0.02-5.126,0.848-4.78,1.199
				c0.652,0.663,2.168,0.19,3.434,0.441c0.746,0.147,1.208,0.463,1.205,0.578c-0.008,0.311-4.417,1.002-4.371,1.857
				c0.066,1.247,3.051,0.809,2.645,1.421c-0.405,0.612-2.885,0.637-2.696,1.786c0.205,1.246,2.615,0.436,2.836,0.909
				c0.221,0.473-2.286,0.826-1.778,1.992c0.554,1.269,2.523,0.047,2.968,0.731c0.18,0.277-1.187,0.389-0.673,1.571
				c0.514,1.181,2.996-0.37,3.391-0.593C494.842,278.097,502.874,275.922,501.171,271.255z"/>
		</g>
		<g>
			<polygon style="fill:#41378C;" points="464.031,266.429 460.369,266.429 458.723,259.907 462.385,259.907 			"/>
			<polygon style="fill:#41378C;" points="469.327,266.429 465.665,266.429 464.019,259.907 467.68,259.907 			"/>
		</g>
		
			<line style="fill:none;stroke:#50374B;stroke-width:0.4667;stroke-miterlimit:10;" x1="562.403" y1="305.356" x2="538.36" y2="322.423"/>
		<g>
			<path style="fill:#FFFFFF;" d="M501.382,378.543c1.011,4.64,2.001,9.147,2.931,13.327c3.439,0.842,2.395-3.891,5.47-4.833
				c0.089-2.851,0.246-5.688,0.438-8.494H501.382z"/>
		</g>
		<g>
			<path style="fill:#FAC855;" d="M510.023,381.903c0.033-0.57,0.062-1.142,0.098-1.71h-8.379c0.126,0.575,0.25,1.141,0.374,1.71
				H510.023z"/>
			<path style="fill:#FAC855;" d="M509.868,385.074c0.028-0.635,0.049-1.272,0.082-1.905h-7.557
				c0.141,0.645,0.279,1.268,0.419,1.905H509.868z"/>
		</g>
		<g>
			<path style="fill:#FFFFFF;" d="M528.545,379.17c0.964,4.418,1.906,8.708,2.794,12.7c3.439,0.842,2.395-2.507,5.47-3.449
				c0.096-3.087,0.27-6.181,0.485-9.251H528.545z"/>
		</g>
		<g>
			<path style="fill:#FAC855;" d="M537.081,382.705c0.044-0.742,0.084-1.485,0.132-2.225h-8.382
				c0.163,0.747,0.325,1.486,0.487,2.225H537.081z"/>
			<path style="fill:#FAC855;" d="M536.926,385.771c0.028-0.6,0.047-1.201,0.079-1.8h-7.41c0.134,0.609,0.264,1.199,0.396,1.8
				H536.926z"/>
		</g>
	</g>
	<g>
		<g>
			<polygon style="fill:#A5A0AA;" points="239.929,400.511 286.154,289.751 278.101,288.122 237.66,400.511 			"/>
		</g>
		<g>
			<polygon style="fill:#A5A0AA;" points="276.1,400.511 322.325,289.751 314.272,288.122 273.831,400.511 			"/>
		</g>
		<g>
			<polygon style="fill:#A5A0AA;" points="598.613,400.511 556.187,289.751 560.441,288.122 600.882,400.511 			"/>
		</g>
		<g>
			<polygon style="fill:#A5A0AA;" points="562.443,400.511 520.016,289.751 524.271,288.122 564.711,400.511 			"/>
		</g>
		
			<rect x="265.47" y="279.011" transform="matrix(-1 -1.224647e-16 1.224647e-16 -1 837.2811 574.5284)" style="fill:#FFFFFF;" width="306.342" height="16.506"/>
		
			<rect x="265.47" y="295.517" transform="matrix(-1 -1.224647e-16 1.224647e-16 -1 837.2811 596.3925)" style="fill:#E6DCDC;" width="306.342" height="5.358"/>
	</g>
	<g>
		<path style="fill:#C8E6EB;" d="M219.64,171.972c-0.168-2.789-2.391-5.019-5.179-5.193c-10.869-0.68-39.838-1.54-45.402,2.892
			c-5.518,4.395,3.169,81.273,3.169,81.273s32.411,5.197,51.922-1.988C224.149,248.956,221.34,200.275,219.64,171.972z"/>
		<g>
			<g>
				<path style="fill:#D77D14;" d="M208.598,400.042h17.869c1.305,0,2.2-1.346,1.659-2.533c-0.643-1.412-1.684-3.02-3.256-3.699
					c-3.082-1.332-10.892-4.011-10.892-4.011l-6.586,0.174c-1.638,1.259-1.78,4.325-1.143,8.575
					C206.38,399.416,207.72,400.042,208.598,400.042z"/>
				<path style="fill:#965028;" d="M228.664,400.586h-22.199c-0.563,0-1.019-0.456-1.019-1.019l0,0c0-0.563,0.456-1.019,1.019-1.019
					h22.199c0.563,0,1.019,0.456,1.019,1.019l0,0C229.683,400.13,229.227,400.586,228.664,400.586z"/>
			</g>
			<path style="fill:#FF9669;" d="M212.71,391.415c-1.423,0.873-2.847,0.873-4.27,0c-0.368-0.226-0.6-0.625-0.6-1.056v-4.833h5.47
				v4.833C213.31,390.79,213.078,391.19,212.71,391.415z"/>
		</g>
		<g>
			<g>
				<path style="fill:#965028;" d="M172.001,404.174h6.232c2.152,0,4.157-1.157,5.175-3.052c0.478-0.89,0.844-1.866,0.844-2.771
					c0-3.85-2.431-7.831-2.431-7.831l-4.139,0.083c0,0-6.422,4.785-7.83,10.877C169.532,402.857,170.587,404.174,172.001,404.174z"
					/>
				<path style="fill:#D77D14;" d="M172.001,401.772h6.232c2.152,0,4.157-1.068,5.175-2.817c0.478-0.821,0.844-1.722,0.844-2.558
					c0-2.251-0.21-4.565-0.364-5.959c-0.082-0.741-0.713-1.294-1.458-1.28l-4.749,0.088c0,0-6.422,4.416-7.83,10.039
					C169.532,400.557,170.587,401.772,172.001,401.772z"/>
			</g>
			<path style="fill:#FF9669;" d="M182.384,390.16c-1.423,0.873-2.847,0.873-4.27,0c-0.368-0.226-0.6-0.625-0.6-1.056v-4.834h5.47
				v4.834C182.984,389.535,182.752,389.935,182.384,390.16z"/>
		</g>
		<g>
			<path style="fill:#695A6E;" d="M215.886,385.875c6.307-28.354,8.898-67.058,8.898-67.058c-5.239-2.583-15.197,7.586-15.197,7.586
				c-8.329,10.399-4.277,34.61-3.503,59.472C209.159,386.817,212.447,386.717,215.886,385.875z"/>
			<path style="fill:#695A6E;" d="M208.303,330.372c0,0-8.881-50.194-10.246-62.067c-1.365-11.873,0-18.241,0-18.241l25.894-2.789
				l2.71,22.905c0.56,2.916,0.71,5.896,0.449,8.854l-2.325,40.238L208.303,330.372z"/>
			<path style="fill:#50374B;" d="M218.425,250.064h-20.368c0,0-1.365,6.368,0,18.241c0.73,6.351,4.004,24.632,7.315,39.653
				C203.687,285.777,205.171,257.568,218.425,250.064z"/>
		</g>
		<g>
			<path style="fill:#695A6E;" d="M175.173,385.841c0.133-24.606-2.946-35.865,2.902-61.329c0,0,13.766-9.882,18.897-7.09
				c0,0-5.142,40.434-11.906,68.594C181.826,387.131,178.526,387.032,175.173,385.841z"/>
			<path style="fill:#695A6E;" d="M178.076,324.513c0,0-4.69-46.712-5.577-58.63c-0.887-11.918,0.68-16.927,0.68-16.927
				l33.274,1.338l-9.499,67.585L178.076,324.513z"/>
			<path style="fill:#50374B;" d="M182.514,258.224c0,0,0.693,5.516-6.075,8.903L182.514,258.224z"/>
			<path style="fill:none;stroke:#50374B;stroke-width:0.4667;stroke-miterlimit:10;" d="M184.397,252.759
				c0,0,5.244,14.071-9.464,22.532"/>
			
				<line style="fill:none;stroke:#50374B;stroke-width:0.4667;stroke-miterlimit:10;" x1="178.652" y1="272.625" x2="178.076" y2="324.513"/>
		</g>
		<rect x="194.48" y="250.064" style="fill:#695A6E;" width="24.829" height="24.829"/>
		<path style="opacity:0.2;" d="M172.227,250.944c0,0,17.949,5.864,34.227,5.146c16.277-0.718,17.497-8.815,17.497-8.815
			S179.171,247.713,172.227,250.944z"/>
		<path style="fill:none;stroke:#50374B;stroke-width:0.8421;stroke-linecap:round;stroke-miterlimit:10;" d="M209.232,252.599
			c0,0,1.27,21.805-3.216,22.692"/>
		<path style="fill:#FFFFFF;" d="M204.128,185.225c-6.87-4.427-13.109-10.177-16.008-15.765v-3.553c0-0.172,1.549-1.248,1.749-2.006
			c1.367-5.182,14.554-0.014,14.554-0.014s1.354,1.018,1.54,2.128C206.941,171.846,207.031,178.05,204.128,185.225z"/>
		<g>
			<g>
				<g>
					<path style="fill:#FF9669;" d="M202.541,179.656c-2.678,0-12.672-9.251-12.672-13.188v-10.499h14.259v10.499
						C204.128,170.406,204.128,179.656,202.541,179.656z"/>
					<path style="fill:#FF640A;" d="M204.128,166.979c-6.021,0.491-10.292-1.988-14.259-4.984v-6.027h14.259V166.979z"/>
					<path style="fill:#FF9669;" d="M203.921,163.653h-3.844c-1.288,0-2.547-0.355-3.612-1.019l-3.446-2.149
						c-4.653-2.902-7.437-7.721-7.437-12.873v-16.177h27.968v20.929c0,0.544-0.118,1.077-0.35,1.577
						C212.069,156.381,208.328,163.653,203.921,163.653z"/>
					<g>
						<path style="fill:#1E1632;" d="M199.031,145.718c-0.033,1.381-0.634,2.488-1.344,2.471c-0.709-0.017-1.258-1.15-1.225-2.532
							c0.033-1.382,0.634-2.488,1.344-2.471C198.515,143.203,199.064,144.337,199.031,145.718z"/>
						<path style="fill:#FFFFFF;" d="M197.746,145.21c0,0.531-0.23,0.961-0.513,0.961c-0.283,0-0.513-0.43-0.513-0.961
							c0-0.531,0.23-0.961,0.513-0.961C197.517,144.249,197.746,144.679,197.746,145.21z"/>
					</g>
					<g>
						<path style="fill:#1E1632;" d="M210.106,145.718c-0.033,1.381-0.634,2.488-1.344,2.471c-0.709-0.017-1.258-1.15-1.225-2.532
							s0.634-2.488,1.344-2.471C209.591,143.203,210.139,144.337,210.106,145.718z"/>
						<path style="fill:#FFFFFF;" d="M208.822,145.21c0,0.531-0.23,0.961-0.513,0.961c-0.283,0-0.513-0.43-0.513-0.961
							c0-0.531,0.23-0.961,0.513-0.961C208.592,144.249,208.822,144.679,208.822,145.21z"/>
					</g>
					<path style="fill:#FF640A;" d="M205.935,148.858v-0.016c0,0-1.899-1.577-1.671-3.898c0,0-1.254,3.076,1.671,4.178
						c0.036,0.144,0.056,0.293,0.056,0.448c0,1.079-0.875,1.954-1.954,1.954c-0.429,0-0.822-0.142-1.144-0.376
						c0.316,0.655,0.98,1.111,1.756,1.111c1.079,0,1.954-0.875,1.954-1.954C206.603,149.725,206.338,149.216,205.935,148.858z"/>
					<path style="fill:#FF640A;" d="M212.367,150.982c0,0.949-0.968,1.718-2.163,1.718c-1.195,0-2.163-0.769-2.163-1.718
						s0.968-1.719,2.163-1.719C211.398,149.263,212.367,150.033,212.367,150.982z"/>
					<path style="fill:#FF640A;" d="M197.562,150.982c0,0.949-0.968,1.718-2.163,1.718c-1.195,0-2.163-0.769-2.163-1.718
						s0.968-1.719,2.163-1.719C196.594,149.263,197.562,150.033,197.562,150.982z"/>
					<path style="fill:#1E1632;" d="M199.19,142.661h-5.192v-1.169l7.442-1.081l0,0C201.44,141.654,200.432,142.661,199.19,142.661z
						"/>
					<path style="fill:#1E1632;" d="M212.224,142.661h-5.192v-1.169l7.442-1.081l0,0
						C214.473,141.654,213.466,142.661,212.224,142.661z"/>
					<path style="fill:#FFFFFF;" d="M205.963,153.048c0,1.767-1.432,3.199-3.199,3.199c-1.766,0-3.199-1.432-3.199-3.199H205.963z"
						/>
					<path style="fill:#1E1632;" d="M187.576,154.648h-1.361c-2.208,0-3.997-1.79-3.997-3.997v-21.62
						c0-2.959,2.399-5.359,5.359-5.359l0,0V154.648z"/>
					<path style="fill:#FF9669;" d="M188.977,146.249c0,2.627-1.895,4.756-4.233,4.756s-4.233-2.129-4.233-4.756
						s1.895-4.756,4.233-4.756S188.977,143.622,188.977,146.249z"/>
					<path style="fill:#FF640A;" d="M186.314,146.249c0,0.974-0.703,1.764-1.57,1.764c0.553-1.235,0.837-2.325,0-3.527
						C185.611,144.486,186.314,145.275,186.314,146.249z"/>
					<rect x="187.219" y="127.789" style="fill:#1E1632;" width="3.17" height="20.14"/>
				</g>
			</g>
			<path style="fill:#1E1632;" d="M184.559,135.849h28.622c2.838,0,5.139-2.301,5.139-5.139v-7.039h-30.315
				c-1.903,0-3.445,1.542-3.445,3.445V135.849z"/>
		</g>
		<polygon style="fill:#FA503C;" points="202.541,179.656 199.032,183.737 205.68,189.87 207.707,182.221 		"/>
		<path style="fill:#FA503C;" d="M202.196,185.225c5.33,10.428,5.564,26.235,3.228,50.633c1.779,4.525,4.671,7.459,8.126,9.59
			c-0.612-4.024-0.009-7.362,1.837-9.999c-0.863-19.04-3.575-33.643-8.933-48.976L202.196,185.225z"/>
		<polygon style="fill:#FFFFFF;" points="202.541,179.656 196.998,185.889 185.581,173.701 184.744,165.906 189.869,163.9 
			189.869,169.454 		"/>
		<polygon style="fill:#FFFFFF;" points="202.541,179.656 208.309,184.763 210.752,171.73 208.822,165.906 204.422,163.886 
			204.748,174.586 		"/>
		<path style="fill:#FF9669;" d="M204.763,246.686c0,0,6.475-4.794,10.716-4.34c4.241,0.453,5.707,1.615,5.27,1.968
			c-0.824,0.669-2.483-0.06-3.952,0.063c-0.865,0.073-1.429,0.371-1.44,0.503c-0.03,0.354,11.475,2.722,11.357,3.692
			c-0.252,2.077-10.198-0.5-9.817,0.246c0.382,0.746,10.523,2.506,10.162,3.785c-0.391,1.387-10.353-1.254-10.664-0.745
			c-0.311,0.508,8.5,2.115,7.774,3.372c-0.79,1.369-8.88-1.155-9.472-0.435c-0.239,0.291,5.535,1.265,4.802,2.54
			c-0.734,1.275-7.59-1.474-8.009-1.777c-0.42-0.303-6.79-1.921-6.827-7.72L204.763,246.686z"/>
		<path style="fill:#FF9669;" d="M172.227,226.887c0,0-2.185-11.578-1.254-17.394c-0.738-0.31-3.511-1.436-4.25-1.746
			c-4.805-2.012-9.669-3.798-14.399-5.905c-0.296,11.842,3.713,28.415,7.101,34.801
			C164.576,246.353,174.934,240.885,172.227,226.887z"/>
		<g>
			<path style="opacity:0.1;" d="M178.485,190.21c0,0-2.871,13.518-5.274,24.674c-5.057-0.583-15.432-3.122-21.723-9.199
				c0.532-6.728,2.77-15.523,5.484-21.764c2.308-5.306,9.91-15.245,13.487-14.422C176.764,170.949,180.167,186.752,178.485,190.21z"
				/>
			<path style="fill:#FFFFFF;" d="M178.485,190.21c0,0-4.628,11.176-7.031,22.332c-5.057-0.583-13.675-0.78-19.966-6.857
				c0.532-6.728,2.77-15.523,5.484-21.764c2.308-5.306,9.902-15.208,13.487-14.422C182.161,172.065,180.167,186.752,178.485,190.21z
				"/>
		</g>
		<path style="fill:#FF9669;" d="M207.696,245.122c-10.472-3.016-26.293-16.132-38.347-19.106
			c-0.023-0.014-10.489,9.347-9.924,10.628c6.319,14.302,48.648,16.91,48.648,16.91S208.767,246.94,207.696,245.122z"/>
	</g>
	<g>
		<path style="fill:#1E1632;" d="M458.163,188.773c4.059-6.401,11.18-10.272,18.755-10.019c4.127,0.138,8.225,0.962,10.631,3.279
			c7.582,7.301,25.236,6.025,24.291,19.226c-0.72,10.064-11.799,15.163,2.745,20.956c15.405,6.136,25.178,34.122,2.89,46.092
			c-22.288,11.969-66.431,3.193-70.991-14.747c-7.499-29.505,11.531-29.01,12.06-37.159c0.529-8.148-4.333-21.397-4.333-21.397
			L458.163,188.773z"/>
		<path style="fill:#FFFFFF;" d="M391.667,255.297c0,0,19.526,23.648,28.243,23.925c8.717,0.276,4.742-17.494,4.742-17.494
			l-32.985-14.85V255.297z"/>
		<path style="fill:#373C41;" d="M413.06,420.515h13.272l11.793-11.433h0c1.351,2.273,0.931,5.18-1.009,6.977l-3.768,3.492
			c-2.465,2.226-7.565,4.068-12.124,3.389l-6.416-0.397C413.804,422.393,413.06,421.531,413.06,420.515L413.06,420.515z"/>
		<path style="fill:#FFFFFF;" d="M445.485,235.029c-5.074,5.484-23.644,25.295-28.561,36.275c-1.448,3.232,1.011,6.67,1.954,7.543
			c4.146,3.835,35.051-22.831,41.619-29.93c6.568-7.099,8.531-15.963,4.385-19.798C460.737,225.284,452.053,227.93,445.485,235.029z
			"/>
		<path style="fill:#F0E1D3;" d="M425.981,275.029l-27.107-5.576c-1.653-0.34-3-1.535-3.534-3.137l-14.115-42.344
			c-0.281-0.843,0.456-1.674,1.327-1.495l27.107,5.575c1.653,0.34,3,1.535,3.534,3.137l14.115,42.344
			C427.589,274.377,426.851,275.208,425.981,275.029z"/>
		<path style="fill:#FF9669;" d="M448.295,289.722c-11.966-0.951-53.107-5.741-54.064,6.299
			c-0.957,12.04,42.819,35.601,59.719,36.919c22.761,1.775,31.807-16.046,32.764-28.086
			C487.671,292.814,460.261,290.673,448.295,289.722z"/>
		<path style="fill:#F0E1D3;" d="M497.186,227.36h-38.131c-6.407,0-10.515,14.214-10.515,14.214l-6.257,18.458
			c-2.108,6.217,2.516,12.666,9.081,12.666h0.379l4.181,40.639l25.635-4.069l5.605-18.047l18.016-52.68
			C507.054,233.06,502.98,227.36,497.186,227.36z"/>
		<path style="fill:#FFFFFF;" d="M482.475,238.144c-5.799,8.704-26,47.954-20.918,51.34c5.083,3.386,33.525-30.374,39.324-39.078
			c5.799-8.704,6.38-18.505,1.297-21.891C497.095,225.129,488.274,229.44,482.475,238.144z"/>
		<path style="fill:#FF9669;" d="M434.727,404.355c-10.216-8.932-23.431-69.608-27.319-76.163
			c-5.336-8.995-13.92-13.761-19.172-10.646c-5.253,3.116-5.185,12.934,0.151,21.929c4.072,6.865,24.815,43.981,35.559,60.082
			c4.625,7.223,1.214,16.587-4.355,16.87c-5.571,0.283-7.985,3.783-6.53,4.087c0.967,0.202,6.914,0.527,10.789,0.721
			c2.196,0.11,4.344-0.535,6.114-1.839c2.058-1.517,4.532-4.037,6.904-6.176C440.061,410.34,437.036,406.374,434.727,404.355z"/>
		<path style="fill:#FF9669;" d="M475.636,338.328c15.064-7.839,18.34-22.485,16.626-32.053c-2.13-11.889-33.63-7.327-47.483-4.845
			c-13.853,2.482-62.112,10.713-59.982,22.601c0.962,5.372,12.728,11.398,27.573,14.008
			C428.506,340.877,475.636,338.328,475.636,338.328z"/>
		<path style="fill:#FF640A;" d="M407.408,328.191c-3.919-6.606-9.586-10.917-14.403-11.514v30.815
			c2.725,4.766,6.272,10.976,10.094,17.583c3.021-8.108,5.827-16.315,8.474-24.537C409.771,334.328,408.328,329.743,407.408,328.191
			z"/>
		<path style="fill:#FF640A;" d="M393.005,314.953v16.522c4.987,2.472,11.813,4.714,19.365,6.567
			c3.165-10.143,5.621-20.626,5.816-31.276C408.923,308.971,399.487,311.727,393.005,314.953z"/>
		<path style="fill:#50374B;" d="M424.474,338.328h51.161c15.064-7.839,18.34-22.485,16.626-32.053
			c-0.56-3.124-6.303-7.812-6.303-7.812s-9.016-6.294-37.215-9.814c-8.125-1.014-33.86-2.985-48.724,0.59
			c11.217,3.84,23.96,30.128,24.559,43.516C424.663,334.634,424.602,336.488,424.474,338.328z"/>
		<path style="fill:#FF9669;" d="M396.548,387.989c-0.742-4-0.484-8.125,0.755-12c6.874-21.5,17.237-60.489,17.551-67.401
			c0.436-9.61-7.504-18.837-13.327-19.325c-5.822-0.488-10.896,6.906-11.333,16.517c-0.307,6.756,3.522,65.075-4.065,81.764
			c-2.145,4.528-15.241,17.869-9.116,18.989c0,0,14.883-8.282,18.26-11.38C397.354,393.242,397.101,390.967,396.548,387.989z"/>
		<path style="fill:#C8462D;" d="M434.727,404.354c-0.158-0.121-0.324-0.275-0.495-0.452c-1.597,5.53-5.625,10.246-12.098,11.675
			c-0.775,0.49-1.626,0.803-2.543,0.85c-5.571,0.283-7.985,3.783-6.53,4.087c0.967,0.202,6.914,0.527,10.789,0.721
			c2.195,0.11,4.344-0.535,6.114-1.839c2.058-1.517,4.532-4.037,6.904-6.176C440.061,410.34,437.163,406.219,434.727,404.354z"/>
		<path style="fill:#C8462D;" d="M380.633,395.318c-3.803,5.092-7.431,10.518-3.621,11.215c0,0,14.883-8.282,18.26-11.38
			c2.816-2.585,1.568-6.081,0.876-10.84C393.966,390.203,388.655,395.104,380.633,395.318z"/>
		<path style="fill:#FF9669;" d="M429.409,262.366c0,0-1.434-7.661-4.738-10.132c-3.305-2.471-5.108-2.613-5.032-2.074
			c0.144,1.017,1.8,1.592,2.76,2.646c0.565,0.621,0.768,1.204,0.69,1.304c-0.212,0.271-9.926-5.625-10.481-4.86
			c-1.188,1.638,7.559,6.36,6.797,6.637c-0.762,0.278-9.109-5.152-9.696-4.007c-0.636,1.241,8.164,5.927,8.05,6.493
			c-0.114,0.565-7.417-4.097-7.731-2.728c-0.341,1.491,7.055,5.028,7.001,5.928c-0.022,0.364-4.757-2.747-5.076-1.361
			c-0.319,1.387,6.35,3.952,6.848,4.013c0.497,0.061,6.078,3.109,9.922-0.977L429.409,262.366z"/>
		<path style="fill:#FFFFFF;" d="M464.708,273.312c-3.754-2.501-24.578-10.807-36.591-16.69c-0.232,2.573-2.127,7.294-3.466,9.462
			c9.855,9.029,25.81,20.915,29.375,23.29c5.686,3.789,11.697,1.719,13.789-1.42C469.906,284.814,470.394,277.1,464.708,273.312z"/>
		<path style="fill:#373C41;" d="M377.012,406.532L377.012,406.532c0.625,0.993,1.933,1.297,2.931,0.682l15.276-9.412
			c2.467-1.52,3.495-4.587,2.442-7.286l-0.859-2.201c0,0,0.724,5.177-1.839,7.107C392.4,397.352,377.012,406.532,377.012,406.532z"
			/>
		<path style="fill:#FF9669;" d="M393.79,245.511c-0.186,0.721-2.414,0.771-4.976,0.111c-2.563-0.66-4.489-1.78-4.304-2.501
			c0.186-0.721,2.414-0.771,4.977-0.111C392.049,243.67,393.976,244.79,393.79,245.511z"/>
		<path style="fill:#FF9669;" d="M394.667,250.703c-0.186,0.721-2.414,0.771-4.976,0.111c-2.563-0.66-4.49-1.78-4.304-2.501
			c0.186-0.721,2.414-0.771,4.976-0.111C392.926,248.862,394.853,249.982,394.667,250.703z"/>
		<path style="fill:#FF9669;" d="M394.577,252.928c-0.156,0.605-2.023,0.646-4.171,0.093c-2.148-0.553-3.763-1.492-3.607-2.096
			c0.156-0.605,2.023-0.646,4.171-0.093C393.118,251.385,394.733,252.323,394.577,252.928z"/>
		<path style="fill:#FF9669;" d="M394.962,248.224c-0.186,0.721-2.676,0.703-5.562-0.04c-2.886-0.743-5.075-1.931-4.889-2.652
			c0.186-0.721,2.676-0.703,5.562,0.04C392.959,246.316,395.148,247.503,394.962,248.224z"/>
		<g>
			<g>
				<g>
					<path style="fill:#FF9669;" d="M476.044,235.33L476.044,235.33c3.79-0.284,6.633-3.587,6.349-7.377l-0.757-10.107
						l-13.726,1.029l0.757,10.107C468.951,232.772,472.253,235.614,476.044,235.33z"/>
					<path style="fill:#FF640A;" d="M468.703,229.473c5.831,0.039,9.764-2.656,13.366-5.826l-0.435-5.801l-13.726,1.029
						L468.703,229.473z"/>
					<path style="fill:#FF9669;" d="M468.663,226.257l3.7-0.277c1.24-0.093,2.426-0.526,3.403-1.242l3.162-2.318
						c4.27-3.129,6.602-7.969,6.23-12.928l-1.167-15.572l-26.922,2.017l1.51,20.146c0.039,0.523,0.191,1.028,0.451,1.493
						C460.295,219.845,464.42,226.575,468.663,226.257z"/>
					<g>
						<path style="fill:#1E1632;" d="M472.076,208.64c0.131,1.327,0.79,2.349,1.472,2.282c0.681-0.067,1.128-1.198,0.997-2.526
							c-0.131-1.327-0.79-2.349-1.472-2.281C472.391,206.182,471.945,207.312,472.076,208.64z"/>
						<path style="fill:#FFFFFF;" d="M472.353,209.133c0.038,0.511,0.29,0.909,0.563,0.888c0.273-0.02,0.463-0.451,0.424-0.962
							s-0.29-0.909-0.563-0.888C472.504,208.191,472.314,208.622,472.353,209.133z"/>
					</g>
					<g>
						<path style="fill:#1E1632;" d="M461.415,209.439c0.131,1.327,0.79,2.349,1.472,2.282c0.682-0.067,1.128-1.198,0.997-2.526
							c-0.131-1.327-0.79-2.349-1.472-2.281C461.73,206.981,461.284,208.111,461.415,209.439z"/>
						<path style="fill:#FFFFFF;" d="M461.702,209.931c0.038,0.511,0.29,0.909,0.563,0.888c0.273-0.02,0.463-0.451,0.424-0.962
							c-0.038-0.511-0.29-0.909-0.563-0.888S461.664,209.42,461.702,209.931z"/>
					</g>
					<path style="fill:#FF640A;" d="M465.657,211.7l-0.001-0.015c0,0,1.714-1.655,1.328-3.873c0,0,1.429,2.87-1.307,4.142
						c-0.024,0.141-0.033,0.286-0.022,0.436c0.078,1.039,0.983,1.818,2.022,1.741c0.413-0.031,0.781-0.196,1.074-0.445
						c-0.256,0.654-0.863,1.14-1.61,1.196c-1.039,0.078-1.945-0.701-2.022-1.74C465.076,212.582,465.294,212.073,465.657,211.7z"/>
					<path style="fill:#FF640A;" d="M459.433,214.107c0.069,0.914,1.056,1.584,2.206,1.498c1.15-0.086,2.026-0.897,1.958-1.81
						c-0.069-0.914-1.056-1.584-2.206-1.498C460.241,212.383,459.364,213.193,459.433,214.107z"/>
					<path style="fill:#FF640A;" d="M474.113,213.007c0.069,0.914,1.056,1.584,2.206,1.498c1.15-0.086,2.027-0.897,1.958-1.81
						c-0.068-0.914-1.056-1.584-2.206-1.498C474.922,211.283,474.045,212.093,474.113,213.007z"/>
					<path style="fill:#1E1632;" d="M471.702,205.709l4.998-0.374l-0.084-1.125l-7.242-0.504l0,0
						C469.464,204.902,470.507,205.799,471.702,205.709z"/>
					<path style="fill:#1E1632;" d="M459.156,206.649l4.998-0.375l-0.084-1.125l-7.242-0.504l0,0
						C456.918,205.842,457.96,206.739,459.156,206.649z"/>
					<path style="fill:#FFFFFF;" d="M465.932,216.649c0.127,1.701,1.609,2.976,3.31,2.848c1.701-0.128,2.976-1.609,2.848-3.31
						L465.932,216.649z"/>
					<path style="fill:#FF9669;" d="M481.792,208.426c0.19,2.529,2.168,4.442,4.418,4.273c2.251-0.169,3.921-2.355,3.732-4.884
						c-0.19-2.529-2.168-4.442-4.418-4.273C483.273,203.711,481.603,205.897,481.792,208.426z"/>
					<path style="fill:#FF640A;" d="M484.356,208.234c0.07,0.938,0.804,1.647,1.638,1.585c-0.621-1.149-0.974-2.178-0.255-3.395
						C484.905,206.485,484.286,207.296,484.356,208.234z"/>
				</g>
			</g>
		</g>
		<path style="fill:#1E1632;" d="M452.495,202.263l21.158-1.586c3.346-0.251,5.888-3.115,5.74-6.467l0,0
			c-0.355-4.743-4.489-8.3-9.232-7.945l-9.988,0.748c-4.743,0.355-8.3,4.489-7.945,9.232L452.495,202.263z"/>
		<path style="fill:#1E1632;" d="M479.394,194.21c0,0,1.382,9.524,4.447,11.44l1.332-2.062l1.261-12.288L479.394,194.21z"/>
		<g>
			<path style="fill:#DB372A;" d="M436.575,325.415h58.98v14.41h-71.154v-2.237C424.402,330.865,429.852,325.415,436.575,325.415z"
				/>
			<polyline style="fill:none;stroke:#32285F;stroke-width:5.3322;stroke-miterlimit:10;" points="509.451,415.303 479.914,400.534 
				450.376,415.303 			"/>
			
				<line style="fill:none;stroke:#32285F;stroke-width:5.3322;stroke-miterlimit:10;" x1="479.914" y1="400.534" x2="479.914" y2="336.555"/>
			<path style="fill:#FA503C;" d="M451.051,339.825h57.371c9.593,0,17.666-7.183,18.782-16.711l9.385-80.124
				c0.914-7.804-5.184-14.658-13.042-14.658h-36.704c-6.132,0-11.448,4.244-12.805,10.224L451.051,339.825z"/>
			
				<rect x="460.987" y="339.825" transform="matrix(-1 -1.224647e-16 1.224647e-16 -1 958.6123 686.0895)" style="fill:#828291;" width="36.638" height="6.439"/>
			<g>
				<circle style="fill:#32285F;" cx="505.021" cy="415.198" r="7.954"/>
				<circle style="fill:#828291;" cx="505.021" cy="415.198" r="3.899"/>
			</g>
			<g>
				<circle style="fill:#32285F;" cx="455.114" cy="415.198" r="7.954"/>
				<circle style="fill:#828291;" cx="455.114" cy="415.198" r="3.899"/>
			</g>
		</g>
	</g>
	<g>
		<path style="fill:#DB372A;" d="M314.226,316.587h-60.964v14.895h73.548v-2.312C326.809,322.22,321.175,316.587,314.226,316.587z"
			/>
		<polyline style="fill:none;stroke:#32285F;stroke-width:5.5116;stroke-miterlimit:10;" points="238.898,409.499 269.429,394.233 
			299.96,409.499 		"/>
		
			<line style="fill:none;stroke:#32285F;stroke-width:5.5116;stroke-miterlimit:10;" x1="269.429" y1="394.233" x2="269.429" y2="328.102"/>
		<path style="fill:#FA503C;" d="M299.263,331.482h-59.222c-9.961,0-18.344-7.458-19.503-17.351l-9.692-82.74
			c-0.945-8.067,5.359-15.151,13.48-15.151h37.939c6.338,0,11.832,4.387,13.236,10.568L299.263,331.482z"/>
		<rect x="251.122" y="331.482" style="fill:#828291;" width="37.87" height="6.656"/>
		<g>
			<circle style="fill:#32285F;" cx="243.478" cy="409.391" r="8.222"/>
			<circle style="fill:#828291;" cx="243.478" cy="409.391" r="4.03"/>
		</g>
		<g>
			<circle style="fill:#32285F;" cx="295.063" cy="409.391" r="8.222"/>
			<circle style="fill:#828291;" cx="295.063" cy="409.391" r="4.03"/>
		</g>
	</g>
</g>
</svg>
